<?xml version="1.0" encoding="utf-8" standalone="no"?>
<!DOCTYPE svg PUBLIC "-//W3C//DTD SVG 1.1//EN"
  "http://www.w3.org/Graphics/SVG/1.1/DTD/svg11.dtd">
<!-- Created with matplotlib (http://matplotlib.org/) -->
<svg height="396pt" version="1.1" viewBox="0 0 576 396" width="576pt" xmlns="http://www.w3.org/2000/svg" xmlns:xlink="http://www.w3.org/1999/xlink">
 <defs>
  <style type="text/css">
*{stroke-linecap:butt;stroke-linejoin:round;stroke-miterlimit:100000;}
  </style>
 </defs>
 <g id="figure_1">
  <g id="patch_1">
   <path d="M 0 396 
L 576 396 
L 576 0 
L 0 0 
z
" style="fill:#ffffff;"/>
  </g>
  <g id="axes_1">
   <g id="patch_2">
    <path d="M 117.0475 352.997813 
L 554.6025 352.997813 
L 554.6025 60.150313 
L 117.0475 60.150313 
z
" style="fill:#eaeaf2;"/>
   </g>
   <g id="matplotlib.axis_1">
    <g id="xtick_1">
     <g id="line2d_1">
      <path clip-path="url(#pf4da756582)" d="M 117.0475 352.997813 
L 117.0475 60.150313 
" style="fill:none;stroke:#ffffff;stroke-linecap:round;"/>
     </g>
     <g id="line2d_2">
      <defs>
       <path d="M 0 0 
L 0 0 
" id="m9491d1367c" style="stroke:#262626;"/>
      </defs>
      <g>
       <use style="fill:#262626;stroke:#262626;" x="117.0475" xlink:href="#m9491d1367c" y="352.9978125"/>
      </g>
     </g>
     <g id="line2d_3">
      <g>
       <use style="fill:#262626;stroke:#262626;" x="117.0475" xlink:href="#m9491d1367c" y="60.1503125"/>
      </g>
     </g>
     <g id="text_1">
      <!-- 0 -->
      <defs>
       <path d="M 4.15625 35.296875 
Q 4.15625 48 6.765625 55.734375 
Q 9.375 63.484375 14.515625 67.671875 
Q 19.671875 71.875 27.484375 71.875 
Q 33.25 71.875 37.59375 69.546875 
Q 41.9375 67.234375 44.765625 62.859375 
Q 47.609375 58.5 49.21875 52.21875 
Q 50.828125 45.953125 50.828125 35.296875 
Q 50.828125 22.703125 48.234375 14.96875 
Q 45.65625 7.234375 40.5 3 
Q 35.359375 -1.21875 27.484375 -1.21875 
Q 17.140625 -1.21875 11.234375 6.203125 
Q 4.15625 15.140625 4.15625 35.296875 
M 13.1875 35.296875 
Q 13.1875 17.671875 17.3125 11.828125 
Q 21.4375 6 27.484375 6 
Q 33.546875 6 37.671875 11.859375 
Q 41.796875 17.71875 41.796875 35.296875 
Q 41.796875 52.984375 37.671875 58.78125 
Q 33.546875 64.59375 27.390625 64.59375 
Q 21.34375 64.59375 17.71875 59.46875 
Q 13.1875 52.9375 13.1875 35.296875 
" id="ArialMT-30"/>
      </defs>
      <g style="fill:#262626;" transform="translate(114.26703125 367.155625)scale(0.1 -0.1)">
       <use xlink:href="#ArialMT-30"/>
      </g>
     </g>
    </g>
    <g id="xtick_2">
     <g id="line2d_4">
      <path clip-path="url(#pf4da756582)" d="M 204.5585 352.997813 
L 204.5585 60.150313 
" style="fill:none;stroke:#ffffff;stroke-linecap:round;"/>
     </g>
     <g id="line2d_5">
      <g>
       <use style="fill:#262626;stroke:#262626;" x="204.5585" xlink:href="#m9491d1367c" y="352.9978125"/>
      </g>
     </g>
     <g id="line2d_6">
      <g>
       <use style="fill:#262626;stroke:#262626;" x="204.5585" xlink:href="#m9491d1367c" y="60.1503125"/>
      </g>
     </g>
     <g id="text_2">
      <!-- 20 -->
      <defs>
       <path d="M 50.34375 8.453125 
L 50.34375 0 
L 3.03125 0 
Q 2.9375 3.171875 4.046875 6.109375 
Q 5.859375 10.9375 9.828125 15.625 
Q 13.8125 20.3125 21.34375 26.46875 
Q 33.015625 36.03125 37.109375 41.625 
Q 41.21875 47.21875 41.21875 52.203125 
Q 41.21875 57.421875 37.46875 61 
Q 33.734375 64.59375 27.734375 64.59375 
Q 21.390625 64.59375 17.578125 60.78125 
Q 13.765625 56.984375 13.71875 50.25 
L 4.6875 51.171875 
Q 5.609375 61.28125 11.65625 66.578125 
Q 17.71875 71.875 27.9375 71.875 
Q 38.234375 71.875 44.234375 66.15625 
Q 50.25 60.453125 50.25 52 
Q 50.25 47.703125 48.484375 43.546875 
Q 46.734375 39.40625 42.65625 34.8125 
Q 38.578125 30.21875 29.109375 22.21875 
Q 21.1875 15.578125 18.9375 13.203125 
Q 16.703125 10.84375 15.234375 8.453125 
z
" id="ArialMT-32"/>
      </defs>
      <g style="fill:#262626;" transform="translate(198.9975625 367.155625)scale(0.1 -0.1)">
       <use xlink:href="#ArialMT-32"/>
       <use x="55.615234375" xlink:href="#ArialMT-30"/>
      </g>
     </g>
    </g>
    <g id="xtick_3">
     <g id="line2d_7">
      <path clip-path="url(#pf4da756582)" d="M 292.0695 352.997813 
L 292.0695 60.150313 
" style="fill:none;stroke:#ffffff;stroke-linecap:round;"/>
     </g>
     <g id="line2d_8">
      <g>
       <use style="fill:#262626;stroke:#262626;" x="292.0695" xlink:href="#m9491d1367c" y="352.9978125"/>
      </g>
     </g>
     <g id="line2d_9">
      <g>
       <use style="fill:#262626;stroke:#262626;" x="292.0695" xlink:href="#m9491d1367c" y="60.1503125"/>
      </g>
     </g>
     <g id="text_3">
      <!-- 40 -->
      <defs>
       <path d="M 32.328125 0 
L 32.328125 17.140625 
L 1.265625 17.140625 
L 1.265625 25.203125 
L 33.9375 71.578125 
L 41.109375 71.578125 
L 41.109375 25.203125 
L 50.78125 25.203125 
L 50.78125 17.140625 
L 41.109375 17.140625 
L 41.109375 0 
z
M 32.328125 25.203125 
L 32.328125 57.46875 
L 9.90625 25.203125 
z
" id="ArialMT-34"/>
      </defs>
      <g style="fill:#262626;" transform="translate(286.5085625 367.155625)scale(0.1 -0.1)">
       <use xlink:href="#ArialMT-34"/>
       <use x="55.615234375" xlink:href="#ArialMT-30"/>
      </g>
     </g>
    </g>
    <g id="xtick_4">
     <g id="line2d_10">
      <path clip-path="url(#pf4da756582)" d="M 379.5805 352.997813 
L 379.5805 60.150313 
" style="fill:none;stroke:#ffffff;stroke-linecap:round;"/>
     </g>
     <g id="line2d_11">
      <g>
       <use style="fill:#262626;stroke:#262626;" x="379.5805" xlink:href="#m9491d1367c" y="352.9978125"/>
      </g>
     </g>
     <g id="line2d_12">
      <g>
       <use style="fill:#262626;stroke:#262626;" x="379.5805" xlink:href="#m9491d1367c" y="60.1503125"/>
      </g>
     </g>
     <g id="text_4">
      <!-- 60 -->
      <defs>
       <path d="M 49.75 54.046875 
L 41.015625 53.375 
Q 39.84375 58.546875 37.703125 60.890625 
Q 34.125 64.65625 28.90625 64.65625 
Q 24.703125 64.65625 21.53125 62.3125 
Q 17.390625 59.28125 14.984375 53.46875 
Q 12.59375 47.65625 12.5 36.921875 
Q 15.671875 41.75 20.265625 44.09375 
Q 24.859375 46.4375 29.890625 46.4375 
Q 38.671875 46.4375 44.84375 39.96875 
Q 51.03125 33.5 51.03125 23.25 
Q 51.03125 16.5 48.125 10.71875 
Q 45.21875 4.9375 40.140625 1.859375 
Q 35.0625 -1.21875 28.609375 -1.21875 
Q 17.625 -1.21875 10.6875 6.859375 
Q 3.765625 14.9375 3.765625 33.5 
Q 3.765625 54.25 11.421875 63.671875 
Q 18.109375 71.875 29.4375 71.875 
Q 37.890625 71.875 43.28125 67.140625 
Q 48.6875 62.40625 49.75 54.046875 
M 13.875 23.1875 
Q 13.875 18.65625 15.796875 14.5 
Q 17.71875 10.359375 21.1875 8.171875 
Q 24.65625 6 28.46875 6 
Q 34.03125 6 38.03125 10.484375 
Q 42.046875 14.984375 42.046875 22.703125 
Q 42.046875 30.125 38.078125 34.390625 
Q 34.125 38.671875 28.125 38.671875 
Q 22.171875 38.671875 18.015625 34.390625 
Q 13.875 30.125 13.875 23.1875 
" id="ArialMT-36"/>
      </defs>
      <g style="fill:#262626;" transform="translate(374.0195625 367.155625)scale(0.1 -0.1)">
       <use xlink:href="#ArialMT-36"/>
       <use x="55.615234375" xlink:href="#ArialMT-30"/>
      </g>
     </g>
    </g>
    <g id="xtick_5">
     <g id="line2d_13">
      <path clip-path="url(#pf4da756582)" d="M 467.0915 352.997813 
L 467.0915 60.150313 
" style="fill:none;stroke:#ffffff;stroke-linecap:round;"/>
     </g>
     <g id="line2d_14">
      <g>
       <use style="fill:#262626;stroke:#262626;" x="467.0915" xlink:href="#m9491d1367c" y="352.9978125"/>
      </g>
     </g>
     <g id="line2d_15">
      <g>
       <use style="fill:#262626;stroke:#262626;" x="467.0915" xlink:href="#m9491d1367c" y="60.1503125"/>
      </g>
     </g>
     <g id="text_5">
      <!-- 80 -->
      <defs>
       <path d="M 17.671875 38.8125 
Q 12.203125 40.828125 9.5625 44.53125 
Q 6.9375 48.25 6.9375 53.421875 
Q 6.9375 61.234375 12.546875 66.546875 
Q 18.171875 71.875 27.484375 71.875 
Q 36.859375 71.875 42.578125 66.421875 
Q 48.296875 60.984375 48.296875 53.171875 
Q 48.296875 48.1875 45.671875 44.5 
Q 43.0625 40.828125 37.75 38.8125 
Q 44.34375 36.671875 47.78125 31.875 
Q 51.21875 27.09375 51.21875 20.453125 
Q 51.21875 11.28125 44.71875 5.03125 
Q 38.234375 -1.21875 27.640625 -1.21875 
Q 17.046875 -1.21875 10.546875 5.046875 
Q 4.046875 11.328125 4.046875 20.703125 
Q 4.046875 27.6875 7.59375 32.390625 
Q 11.140625 37.109375 17.671875 38.8125 
M 15.921875 53.71875 
Q 15.921875 48.640625 19.1875 45.40625 
Q 22.46875 42.1875 27.6875 42.1875 
Q 32.765625 42.1875 36.015625 45.375 
Q 39.265625 48.578125 39.265625 53.21875 
Q 39.265625 58.0625 35.90625 61.359375 
Q 32.5625 64.65625 27.59375 64.65625 
Q 22.5625 64.65625 19.234375 61.421875 
Q 15.921875 58.203125 15.921875 53.71875 
M 13.09375 20.65625 
Q 13.09375 16.890625 14.875 13.375 
Q 16.65625 9.859375 20.171875 7.921875 
Q 23.6875 6 27.734375 6 
Q 34.03125 6 38.125 10.046875 
Q 42.234375 14.109375 42.234375 20.359375 
Q 42.234375 26.703125 38.015625 30.859375 
Q 33.796875 35.015625 27.4375 35.015625 
Q 21.234375 35.015625 17.15625 30.90625 
Q 13.09375 26.8125 13.09375 20.65625 
" id="ArialMT-38"/>
      </defs>
      <g style="fill:#262626;" transform="translate(461.5305625 367.155625)scale(0.1 -0.1)">
       <use xlink:href="#ArialMT-38"/>
       <use x="55.615234375" xlink:href="#ArialMT-30"/>
      </g>
     </g>
    </g>
    <g id="xtick_6">
     <g id="line2d_16">
      <path clip-path="url(#pf4da756582)" d="M 554.6025 352.997813 
L 554.6025 60.150313 
" style="fill:none;stroke:#ffffff;stroke-linecap:round;"/>
     </g>
     <g id="line2d_17">
      <g>
       <use style="fill:#262626;stroke:#262626;" x="554.6025" xlink:href="#m9491d1367c" y="352.9978125"/>
      </g>
     </g>
     <g id="line2d_18">
      <g>
       <use style="fill:#262626;stroke:#262626;" x="554.6025" xlink:href="#m9491d1367c" y="60.1503125"/>
      </g>
     </g>
     <g id="text_6">
      <!-- 100 -->
      <defs>
       <path d="M 37.25 0 
L 28.46875 0 
L 28.46875 56 
Q 25.296875 52.984375 20.140625 49.953125 
Q 14.984375 46.921875 10.890625 45.40625 
L 10.890625 53.90625 
Q 18.265625 57.375 23.78125 62.296875 
Q 29.296875 67.234375 31.59375 71.875 
L 37.25 71.875 
z
" id="ArialMT-31"/>
      </defs>
      <g style="fill:#262626;" transform="translate(546.26109375 367.155625)scale(0.1 -0.1)">
       <use xlink:href="#ArialMT-31"/>
       <use x="55.615234375" xlink:href="#ArialMT-30"/>
       <use x="111.23046875" xlink:href="#ArialMT-30"/>
      </g>
     </g>
    </g>
    <g id="text_7">
     <!-- Percentage of respondents -->
     <defs>
      <path id="ArialMT-20"/>
      <path d="M 40.4375 6.390625 
Q 35.546875 2.25 31.03125 0.53125 
Q 26.515625 -1.171875 21.34375 -1.171875 
Q 12.796875 -1.171875 8.203125 3 
Q 3.609375 7.171875 3.609375 13.671875 
Q 3.609375 17.484375 5.34375 20.625 
Q 7.078125 23.78125 9.890625 25.6875 
Q 12.703125 27.59375 16.21875 28.5625 
Q 18.796875 29.25 24.03125 29.890625 
Q 34.671875 31.15625 39.703125 32.90625 
Q 39.75 34.71875 39.75 35.203125 
Q 39.75 40.578125 37.25 42.78125 
Q 33.890625 45.75 27.25 45.75 
Q 21.046875 45.75 18.09375 43.578125 
Q 15.140625 41.40625 13.71875 35.890625 
L 5.125 37.0625 
Q 6.296875 42.578125 8.984375 45.96875 
Q 11.671875 49.359375 16.75 51.1875 
Q 21.828125 53.03125 28.515625 53.03125 
Q 35.15625 53.03125 39.296875 51.46875 
Q 43.453125 49.90625 45.40625 47.53125 
Q 47.359375 45.171875 48.140625 41.546875 
Q 48.578125 39.3125 48.578125 33.453125 
L 48.578125 21.734375 
Q 48.578125 9.46875 49.140625 6.21875 
Q 49.703125 2.984375 51.375 0 
L 42.1875 0 
Q 40.828125 2.734375 40.4375 6.390625 
M 39.703125 26.03125 
Q 34.90625 24.078125 25.34375 22.703125 
Q 19.921875 21.921875 17.671875 20.9375 
Q 15.4375 19.96875 14.203125 18.09375 
Q 12.984375 16.21875 12.984375 13.921875 
Q 12.984375 10.40625 15.640625 8.0625 
Q 18.3125 5.71875 23.4375 5.71875 
Q 28.515625 5.71875 32.46875 7.9375 
Q 36.421875 10.15625 38.28125 14.015625 
Q 39.703125 17 39.703125 22.796875 
z
" id="ArialMT-61"/>
      <path d="M 8.6875 0 
L 8.6875 45.015625 
L 0.921875 45.015625 
L 0.921875 51.859375 
L 8.6875 51.859375 
L 8.6875 57.375 
Q 8.6875 62.59375 9.625 65.140625 
Q 10.890625 68.5625 14.078125 70.671875 
Q 17.28125 72.796875 23.046875 72.796875 
Q 26.765625 72.796875 31.25 71.921875 
L 29.9375 64.265625 
Q 27.203125 64.75 24.75 64.75 
Q 20.75 64.75 19.09375 63.03125 
Q 17.4375 61.328125 17.4375 56.640625 
L 17.4375 51.859375 
L 27.546875 51.859375 
L 27.546875 45.015625 
L 17.4375 45.015625 
L 17.4375 0 
z
" id="ArialMT-66"/>
      <path d="M 25.78125 7.859375 
L 27.046875 0.09375 
Q 23.34375 -0.6875 20.40625 -0.6875 
Q 15.625 -0.6875 12.984375 0.828125 
Q 10.359375 2.34375 9.28125 4.8125 
Q 8.203125 7.28125 8.203125 15.1875 
L 8.203125 45.015625 
L 1.765625 45.015625 
L 1.765625 51.859375 
L 8.203125 51.859375 
L 8.203125 64.703125 
L 16.9375 69.96875 
L 16.9375 51.859375 
L 25.78125 51.859375 
L 25.78125 45.015625 
L 16.9375 45.015625 
L 16.9375 14.703125 
Q 16.9375 10.9375 17.40625 9.859375 
Q 17.875 8.796875 18.921875 8.15625 
Q 19.96875 7.515625 21.921875 7.515625 
Q 23.390625 7.515625 25.78125 7.859375 
" id="ArialMT-74"/>
      <path d="M 3.328125 25.921875 
Q 3.328125 40.328125 11.328125 47.265625 
Q 18.015625 53.03125 27.640625 53.03125 
Q 38.328125 53.03125 45.109375 46.015625 
Q 51.90625 39.015625 51.90625 26.65625 
Q 51.90625 16.65625 48.90625 10.90625 
Q 45.90625 5.171875 40.15625 2 
Q 34.421875 -1.171875 27.640625 -1.171875 
Q 16.75 -1.171875 10.03125 5.8125 
Q 3.328125 12.796875 3.328125 25.921875 
M 12.359375 25.921875 
Q 12.359375 15.96875 16.703125 11.015625 
Q 21.046875 6.0625 27.640625 6.0625 
Q 34.1875 6.0625 38.53125 11.03125 
Q 42.875 16.015625 42.875 26.21875 
Q 42.875 35.84375 38.5 40.796875 
Q 34.125 45.75 27.640625 45.75 
Q 21.046875 45.75 16.703125 40.8125 
Q 12.359375 35.890625 12.359375 25.921875 
" id="ArialMT-6f"/>
      <path d="M 42.09375 16.703125 
L 51.171875 15.578125 
Q 49.03125 7.625 43.21875 3.21875 
Q 37.40625 -1.171875 28.375 -1.171875 
Q 17 -1.171875 10.328125 5.828125 
Q 3.65625 12.84375 3.65625 25.484375 
Q 3.65625 38.578125 10.390625 45.796875 
Q 17.140625 53.03125 27.875 53.03125 
Q 38.28125 53.03125 44.875 45.953125 
Q 51.46875 38.875 51.46875 26.03125 
Q 51.46875 25.25 51.421875 23.6875 
L 12.75 23.6875 
Q 13.234375 15.140625 17.578125 10.59375 
Q 21.921875 6.0625 28.421875 6.0625 
Q 33.25 6.0625 36.671875 8.59375 
Q 40.09375 11.140625 42.09375 16.703125 
M 13.234375 30.90625 
L 42.1875 30.90625 
Q 41.609375 37.453125 38.875 40.71875 
Q 34.671875 45.796875 27.984375 45.796875 
Q 21.921875 45.796875 17.796875 41.75 
Q 13.671875 37.703125 13.234375 30.90625 
" id="ArialMT-65"/>
      <path d="M 40.4375 19 
L 49.078125 17.875 
Q 47.65625 8.9375 41.8125 3.875 
Q 35.984375 -1.171875 27.484375 -1.171875 
Q 16.84375 -1.171875 10.375 5.78125 
Q 3.90625 12.75 3.90625 25.734375 
Q 3.90625 34.125 6.6875 40.421875 
Q 9.46875 46.734375 15.15625 49.875 
Q 20.84375 53.03125 27.546875 53.03125 
Q 35.984375 53.03125 41.359375 48.75 
Q 46.734375 44.484375 48.25 36.625 
L 39.703125 35.296875 
Q 38.484375 40.53125 35.375 43.15625 
Q 32.28125 45.796875 27.875 45.796875 
Q 21.234375 45.796875 17.078125 41.03125 
Q 12.9375 36.28125 12.9375 25.984375 
Q 12.9375 15.53125 16.9375 10.796875 
Q 20.953125 6.0625 27.390625 6.0625 
Q 32.5625 6.0625 36.03125 9.234375 
Q 39.5 12.40625 40.4375 19 
" id="ArialMT-63"/>
      <path d="M 40.234375 0 
L 40.234375 6.546875 
Q 35.296875 -1.171875 25.734375 -1.171875 
Q 19.53125 -1.171875 14.328125 2.25 
Q 9.125 5.671875 6.265625 11.796875 
Q 3.421875 17.921875 3.421875 25.875 
Q 3.421875 33.640625 6 39.96875 
Q 8.59375 46.296875 13.765625 49.65625 
Q 18.953125 53.03125 25.34375 53.03125 
Q 30.03125 53.03125 33.6875 51.046875 
Q 37.359375 49.078125 39.65625 45.90625 
L 39.65625 71.578125 
L 48.390625 71.578125 
L 48.390625 0 
z
M 12.453125 25.875 
Q 12.453125 15.921875 16.640625 10.984375 
Q 20.84375 6.0625 26.5625 6.0625 
Q 32.328125 6.0625 36.34375 10.765625 
Q 40.375 15.484375 40.375 25.140625 
Q 40.375 35.796875 36.265625 40.765625 
Q 32.171875 45.75 26.171875 45.75 
Q 20.3125 45.75 16.375 40.96875 
Q 12.453125 36.1875 12.453125 25.875 
" id="ArialMT-64"/>
      <path d="M 7.71875 0 
L 7.71875 71.578125 
L 34.71875 71.578125 
Q 41.84375 71.578125 45.609375 70.90625 
Q 50.875 70.015625 54.4375 67.546875 
Q 58.015625 65.09375 60.1875 60.640625 
Q 62.359375 56.203125 62.359375 50.875 
Q 62.359375 41.75 56.546875 35.421875 
Q 50.734375 29.109375 35.546875 29.109375 
L 17.1875 29.109375 
L 17.1875 0 
z
M 17.1875 37.546875 
L 35.6875 37.546875 
Q 44.875 37.546875 48.734375 40.96875 
Q 52.59375 44.390625 52.59375 50.59375 
Q 52.59375 55.078125 50.3125 58.265625 
Q 48.046875 61.46875 44.34375 62.5 
Q 41.9375 63.140625 35.5 63.140625 
L 17.1875 63.140625 
z
" id="ArialMT-50"/>
      <path d="M 6.59375 0 
L 6.59375 51.859375 
L 14.5 51.859375 
L 14.5 44.484375 
Q 20.21875 53.03125 31 53.03125 
Q 35.6875 53.03125 39.625 51.34375 
Q 43.5625 49.65625 45.515625 46.921875 
Q 47.46875 44.1875 48.25 40.4375 
Q 48.734375 37.984375 48.734375 31.890625 
L 48.734375 0 
L 39.9375 0 
L 39.9375 31.546875 
Q 39.9375 36.921875 38.90625 39.578125 
Q 37.890625 42.234375 35.28125 43.8125 
Q 32.671875 45.40625 29.15625 45.40625 
Q 23.53125 45.40625 19.453125 41.84375 
Q 15.375 38.28125 15.375 28.328125 
L 15.375 0 
z
" id="ArialMT-6e"/>
      <path d="M 4.984375 -4.296875 
L 13.53125 -5.5625 
Q 14.0625 -9.515625 16.5 -11.328125 
Q 19.78125 -13.765625 25.4375 -13.765625 
Q 31.546875 -13.765625 34.859375 -11.328125 
Q 38.1875 -8.890625 39.359375 -4.5 
Q 40.046875 -1.8125 39.984375 6.78125 
Q 34.234375 0 25.640625 0 
Q 14.9375 0 9.078125 7.71875 
Q 3.21875 15.4375 3.21875 26.21875 
Q 3.21875 33.640625 5.90625 39.90625 
Q 8.59375 46.1875 13.6875 49.609375 
Q 18.796875 53.03125 25.6875 53.03125 
Q 34.859375 53.03125 40.828125 45.609375 
L 40.828125 51.859375 
L 48.921875 51.859375 
L 48.921875 7.03125 
Q 48.921875 -5.078125 46.453125 -10.125 
Q 44 -15.1875 38.640625 -18.109375 
Q 33.296875 -21.046875 25.484375 -21.046875 
Q 16.21875 -21.046875 10.5 -16.875 
Q 4.78125 -12.703125 4.984375 -4.296875 
M 12.25 26.859375 
Q 12.25 16.65625 16.296875 11.96875 
Q 20.359375 7.28125 26.46875 7.28125 
Q 32.515625 7.28125 36.609375 11.9375 
Q 40.71875 16.609375 40.71875 26.5625 
Q 40.71875 36.078125 36.5 40.90625 
Q 32.28125 45.75 26.3125 45.75 
Q 20.453125 45.75 16.34375 40.984375 
Q 12.25 36.234375 12.25 26.859375 
" id="ArialMT-67"/>
      <path d="M 6.59375 -19.875 
L 6.59375 51.859375 
L 14.59375 51.859375 
L 14.59375 45.125 
Q 17.4375 49.078125 21 51.046875 
Q 24.5625 53.03125 29.640625 53.03125 
Q 36.28125 53.03125 41.359375 49.609375 
Q 46.4375 46.1875 49.015625 39.953125 
Q 51.609375 33.734375 51.609375 26.3125 
Q 51.609375 18.359375 48.75 11.984375 
Q 45.90625 5.609375 40.453125 2.21875 
Q 35.015625 -1.171875 29 -1.171875 
Q 24.609375 -1.171875 21.109375 0.6875 
Q 17.625 2.546875 15.375 5.375 
L 15.375 -19.875 
z
M 14.546875 25.640625 
Q 14.546875 15.625 18.59375 10.84375 
Q 22.65625 6.0625 28.421875 6.0625 
Q 34.28125 6.0625 38.453125 11.015625 
Q 42.625 15.96875 42.625 26.375 
Q 42.625 36.28125 38.546875 41.203125 
Q 34.46875 46.140625 28.8125 46.140625 
Q 23.1875 46.140625 18.859375 40.890625 
Q 14.546875 35.640625 14.546875 25.640625 
" id="ArialMT-70"/>
      <path d="M 3.078125 15.484375 
L 11.765625 16.84375 
Q 12.5 11.625 15.84375 8.84375 
Q 19.1875 6.0625 25.203125 6.0625 
Q 31.25 6.0625 34.171875 8.515625 
Q 37.109375 10.984375 37.109375 14.3125 
Q 37.109375 17.28125 34.515625 19 
Q 32.71875 20.171875 25.53125 21.96875 
Q 15.875 24.421875 12.140625 26.203125 
Q 8.40625 27.984375 6.46875 31.125 
Q 4.546875 34.28125 4.546875 38.09375 
Q 4.546875 41.546875 6.125 44.5 
Q 7.71875 47.46875 10.453125 49.421875 
Q 12.5 50.921875 16.03125 51.96875 
Q 19.578125 53.03125 23.640625 53.03125 
Q 29.734375 53.03125 34.34375 51.265625 
Q 38.96875 49.515625 41.15625 46.5 
Q 43.359375 43.5 44.1875 38.484375 
L 35.59375 37.3125 
Q 35.015625 41.3125 32.203125 43.546875 
Q 29.390625 45.796875 24.265625 45.796875 
Q 18.21875 45.796875 15.625 43.796875 
Q 13.03125 41.796875 13.03125 39.109375 
Q 13.03125 37.40625 14.109375 36.03125 
Q 15.1875 34.625 17.484375 33.6875 
Q 18.796875 33.203125 25.25 31.453125 
Q 34.578125 28.953125 38.25 27.359375 
Q 41.9375 25.78125 44.03125 22.75 
Q 46.140625 19.734375 46.140625 15.234375 
Q 46.140625 10.84375 43.578125 6.953125 
Q 41.015625 3.078125 36.171875 0.953125 
Q 31.34375 -1.171875 25.25 -1.171875 
Q 15.140625 -1.171875 9.84375 3.03125 
Q 4.546875 7.234375 3.078125 15.484375 
" id="ArialMT-73"/>
      <path d="M 6.5 0 
L 6.5 51.859375 
L 14.40625 51.859375 
L 14.40625 44 
Q 17.4375 49.515625 20 51.265625 
Q 22.5625 53.03125 25.640625 53.03125 
Q 30.078125 53.03125 34.671875 50.203125 
L 31.640625 42.046875 
Q 28.421875 43.953125 25.203125 43.953125 
Q 22.3125 43.953125 20.015625 42.21875 
Q 17.71875 40.484375 16.75 37.40625 
Q 15.28125 32.71875 15.28125 27.15625 
L 15.28125 0 
z
" id="ArialMT-72"/>
     </defs>
     <g style="fill:#262626;" transform="translate(269.784609375 382.15078125)scale(0.11 -0.11)">
      <use xlink:href="#ArialMT-50"/>
      <use x="66.69921875" xlink:href="#ArialMT-65"/>
      <use x="122.314453125" xlink:href="#ArialMT-72"/>
      <use x="155.615234375" xlink:href="#ArialMT-63"/>
      <use x="205.615234375" xlink:href="#ArialMT-65"/>
      <use x="261.23046875" xlink:href="#ArialMT-6e"/>
      <use x="316.845703125" xlink:href="#ArialMT-74"/>
      <use x="344.62890625" xlink:href="#ArialMT-61"/>
      <use x="400.244140625" xlink:href="#ArialMT-67"/>
      <use x="455.859375" xlink:href="#ArialMT-65"/>
      <use x="511.474609375" xlink:href="#ArialMT-20"/>
      <use x="539.2578125" xlink:href="#ArialMT-6f"/>
      <use x="594.873046875" xlink:href="#ArialMT-66"/>
      <use x="622.65625" xlink:href="#ArialMT-20"/>
      <use x="650.439453125" xlink:href="#ArialMT-72"/>
      <use x="683.740234375" xlink:href="#ArialMT-65"/>
      <use x="739.35546875" xlink:href="#ArialMT-73"/>
      <use x="789.35546875" xlink:href="#ArialMT-70"/>
      <use x="844.970703125" xlink:href="#ArialMT-6f"/>
      <use x="900.5859375" xlink:href="#ArialMT-6e"/>
      <use x="956.201171875" xlink:href="#ArialMT-64"/>
      <use x="1011.81640625" xlink:href="#ArialMT-65"/>
      <use x="1067.431640625" xlink:href="#ArialMT-6e"/>
      <use x="1123.046875" xlink:href="#ArialMT-74"/>
      <use x="1150.830078125" xlink:href="#ArialMT-73"/>
     </g>
    </g>
   </g>
   <g id="matplotlib.axis_2">
    <g id="ytick_1">
     <g id="line2d_19">
      <g>
       <use style="fill:#262626;stroke:#262626;" x="117.0475" xlink:href="#m9491d1367c" y="84.5542708333"/>
      </g>
     </g>
     <g id="line2d_20">
      <g>
       <use style="fill:#262626;stroke:#262626;" x="554.6025" xlink:href="#m9491d1367c" y="84.5542708333"/>
      </g>
     </g>
     <g id="text_8">
      <!-- 3.2.* -->
      <defs>
       <path d="M 9.078125 0 
L 9.078125 10.015625 
L 19.09375 10.015625 
L 19.09375 0 
z
" id="ArialMT-2e"/>
       <path d="M 4.203125 18.890625 
L 12.984375 20.0625 
Q 14.5 12.59375 18.140625 9.296875 
Q 21.78125 6 27 6 
Q 33.203125 6 37.46875 10.296875 
Q 41.75 14.59375 41.75 20.953125 
Q 41.75 27 37.796875 30.921875 
Q 33.84375 34.859375 27.734375 34.859375 
Q 25.25 34.859375 21.53125 33.890625 
L 22.515625 41.609375 
Q 23.390625 41.5 23.921875 41.5 
Q 29.546875 41.5 34.03125 44.421875 
Q 38.53125 47.359375 38.53125 53.46875 
Q 38.53125 58.296875 35.25 61.46875 
Q 31.984375 64.65625 26.8125 64.65625 
Q 21.6875 64.65625 18.265625 61.421875 
Q 14.84375 58.203125 13.875 51.765625 
L 5.078125 53.328125 
Q 6.6875 62.15625 12.390625 67.015625 
Q 18.109375 71.875 26.609375 71.875 
Q 32.46875 71.875 37.390625 69.359375 
Q 42.328125 66.84375 44.9375 62.5 
Q 47.5625 58.15625 47.5625 53.265625 
Q 47.5625 48.640625 45.0625 44.828125 
Q 42.578125 41.015625 37.703125 38.765625 
Q 44.046875 37.3125 47.5625 32.6875 
Q 51.078125 28.078125 51.078125 21.140625 
Q 51.078125 11.765625 44.234375 5.25 
Q 37.40625 -1.265625 26.953125 -1.265625 
Q 17.53125 -1.265625 11.296875 4.34375 
Q 5.078125 9.96875 4.203125 18.890625 
" id="ArialMT-33"/>
       <path d="M 3.125 58.453125 
L 5.375 65.375 
Q 13.140625 62.640625 16.65625 60.640625 
Q 15.71875 69.484375 15.671875 72.796875 
L 22.75 72.796875 
Q 22.609375 67.96875 21.625 60.6875 
Q 26.65625 63.234375 33.15625 65.375 
L 35.40625 58.453125 
Q 29.203125 56.390625 23.25 55.71875 
Q 26.21875 53.125 31.640625 46.484375 
L 25.78125 42.328125 
Q 22.953125 46.1875 19.09375 52.828125 
Q 15.484375 45.953125 12.75 42.328125 
L 6.984375 46.484375 
Q 12.640625 53.46875 15.09375 55.71875 
Q 8.796875 56.9375 3.125 58.453125 
" id="ArialMT-2a"/>
      </defs>
      <g style="fill:#262626;" transform="translate(89.4771875 87.1394270833)scale(0.1 -0.1)">
       <use xlink:href="#ArialMT-33"/>
       <use x="55.615234375" xlink:href="#ArialMT-2e"/>
       <use x="83.3984375" xlink:href="#ArialMT-32"/>
       <use x="139.013671875" xlink:href="#ArialMT-2e"/>
       <use x="166.796875" xlink:href="#ArialMT-2a"/>
      </g>
     </g>
    </g>
    <g id="ytick_2">
     <g id="line2d_21">
      <g>
       <use style="fill:#262626;stroke:#262626;" x="117.0475" xlink:href="#m9491d1367c" y="133.3621875"/>
      </g>
     </g>
     <g id="line2d_22">
      <g>
       <use style="fill:#262626;stroke:#262626;" x="554.6025" xlink:href="#m9491d1367c" y="133.3621875"/>
      </g>
     </g>
     <g id="text_9">
      <!-- 3.1.* -->
      <g style="fill:#262626;" transform="translate(89.4771875 135.94734375)scale(0.1 -0.1)">
       <use xlink:href="#ArialMT-33"/>
       <use x="55.615234375" xlink:href="#ArialMT-2e"/>
       <use x="83.3984375" xlink:href="#ArialMT-31"/>
       <use x="139.013671875" xlink:href="#ArialMT-2e"/>
       <use x="166.796875" xlink:href="#ArialMT-2a"/>
      </g>
     </g>
    </g>
    <g id="ytick_3">
     <g id="line2d_23">
      <g>
       <use style="fill:#262626;stroke:#262626;" x="117.0475" xlink:href="#m9491d1367c" y="182.170104167"/>
      </g>
     </g>
     <g id="line2d_24">
      <g>
       <use style="fill:#262626;stroke:#262626;" x="554.6025" xlink:href="#m9491d1367c" y="182.170104167"/>
      </g>
     </g>
     <g id="text_10">
      <!-- 3.0.* -->
      <g style="fill:#262626;" transform="translate(89.4771875 184.755260417)scale(0.1 -0.1)">
       <use xlink:href="#ArialMT-33"/>
       <use x="55.615234375" xlink:href="#ArialMT-2e"/>
       <use x="83.3984375" xlink:href="#ArialMT-30"/>
       <use x="139.013671875" xlink:href="#ArialMT-2e"/>
       <use x="166.796875" xlink:href="#ArialMT-2a"/>
      </g>
     </g>
    </g>
    <g id="ytick_4">
     <g id="line2d_25">
      <g>
       <use style="fill:#262626;stroke:#262626;" x="117.0475" xlink:href="#m9491d1367c" y="230.978020833"/>
      </g>
     </g>
     <g id="line2d_26">
      <g>
       <use style="fill:#262626;stroke:#262626;" x="554.6025" xlink:href="#m9491d1367c" y="230.978020833"/>
      </g>
     </g>
     <g id="text_11">
      <!-- 2.* -->
      <g style="fill:#262626;" transform="translate(97.81625 233.563177083)scale(0.1 -0.1)">
       <use xlink:href="#ArialMT-32"/>
       <use x="55.615234375" xlink:href="#ArialMT-2e"/>
       <use x="83.3984375" xlink:href="#ArialMT-2a"/>
      </g>
     </g>
    </g>
    <g id="ytick_5">
     <g id="line2d_27">
      <g>
       <use style="fill:#262626;stroke:#262626;" x="117.0475" xlink:href="#m9491d1367c" y="279.7859375"/>
      </g>
     </g>
     <g id="line2d_28">
      <g>
       <use style="fill:#262626;stroke:#262626;" x="554.6025" xlink:href="#m9491d1367c" y="279.7859375"/>
      </g>
     </g>
     <g id="text_12">
      <!-- Git development build -->
      <defs>
       <path d="M 40.578125 0 
L 40.578125 7.625 
Q 34.515625 -1.171875 24.125 -1.171875 
Q 19.53125 -1.171875 15.546875 0.578125 
Q 11.578125 2.34375 9.640625 5 
Q 7.71875 7.671875 6.9375 11.53125 
Q 6.390625 14.109375 6.390625 19.734375 
L 6.390625 51.859375 
L 15.1875 51.859375 
L 15.1875 23.09375 
Q 15.1875 16.21875 15.71875 13.8125 
Q 16.546875 10.359375 19.234375 8.375 
Q 21.921875 6.390625 25.875 6.390625 
Q 29.828125 6.390625 33.296875 8.421875 
Q 36.765625 10.453125 38.203125 13.9375 
Q 39.65625 17.4375 39.65625 24.078125 
L 39.65625 51.859375 
L 48.4375 51.859375 
L 48.4375 0 
z
" id="ArialMT-75"/>
       <path d="M 6.640625 61.46875 
L 6.640625 71.578125 
L 15.4375 71.578125 
L 15.4375 61.46875 
z
M 6.640625 0 
L 6.640625 51.859375 
L 15.4375 51.859375 
L 15.4375 0 
z
" id="ArialMT-69"/>
       <path d="M 21 0 
L 1.265625 51.859375 
L 10.546875 51.859375 
L 21.6875 20.796875 
Q 23.484375 15.765625 25 10.359375 
Q 26.171875 14.453125 28.265625 20.21875 
L 39.796875 51.859375 
L 48.828125 51.859375 
L 29.203125 0 
z
" id="ArialMT-76"/>
       <path d="M 6.59375 0 
L 6.59375 51.859375 
L 14.453125 51.859375 
L 14.453125 44.578125 
Q 16.890625 48.390625 20.9375 50.703125 
Q 25 53.03125 30.171875 53.03125 
Q 35.9375 53.03125 39.625 50.640625 
Q 43.3125 48.25 44.828125 43.953125 
Q 50.984375 53.03125 60.84375 53.03125 
Q 68.5625 53.03125 72.703125 48.75 
Q 76.859375 44.484375 76.859375 35.59375 
L 76.859375 0 
L 68.109375 0 
L 68.109375 32.671875 
Q 68.109375 37.9375 67.25 40.25 
Q 66.40625 42.578125 64.15625 43.984375 
Q 61.921875 45.40625 58.890625 45.40625 
Q 53.421875 45.40625 49.796875 41.765625 
Q 46.1875 38.140625 46.1875 30.125 
L 46.1875 0 
L 37.40625 0 
L 37.40625 33.6875 
Q 37.40625 39.546875 35.25 42.46875 
Q 33.109375 45.40625 28.21875 45.40625 
Q 24.515625 45.40625 21.359375 43.453125 
Q 18.21875 41.5 16.796875 37.734375 
Q 15.375 33.984375 15.375 26.90625 
L 15.375 0 
z
" id="ArialMT-6d"/>
       <path d="M 41.21875 28.078125 
L 41.21875 36.46875 
L 71.53125 36.53125 
L 71.53125 9.96875 
Q 64.546875 4.390625 57.125 1.578125 
Q 49.703125 -1.21875 41.890625 -1.21875 
Q 31.34375 -1.21875 22.71875 3.296875 
Q 14.109375 7.8125 9.71875 16.359375 
Q 5.328125 24.90625 5.328125 35.453125 
Q 5.328125 45.90625 9.6875 54.953125 
Q 14.0625 64.015625 22.265625 68.40625 
Q 30.46875 72.796875 41.15625 72.796875 
Q 48.921875 72.796875 55.1875 70.28125 
Q 61.46875 67.78125 65.03125 63.28125 
Q 68.609375 58.796875 70.453125 51.5625 
L 61.921875 49.21875 
Q 60.296875 54.6875 57.90625 57.8125 
Q 55.515625 60.9375 51.0625 62.8125 
Q 46.625 64.703125 41.21875 64.703125 
Q 34.71875 64.703125 29.984375 62.71875 
Q 25.25 60.75 22.34375 57.515625 
Q 19.4375 54.296875 17.828125 50.4375 
Q 15.09375 43.796875 15.09375 36.03125 
Q 15.09375 26.46875 18.390625 20.015625 
Q 21.6875 13.578125 27.984375 10.453125 
Q 34.28125 7.328125 41.359375 7.328125 
Q 47.515625 7.328125 53.375 9.6875 
Q 59.234375 12.0625 62.25 14.75 
L 62.25 28.078125 
z
" id="ArialMT-47"/>
       <path d="M 6.390625 0 
L 6.390625 71.578125 
L 15.1875 71.578125 
L 15.1875 0 
z
" id="ArialMT-6c"/>
       <path d="M 14.703125 0 
L 6.546875 0 
L 6.546875 71.578125 
L 15.328125 71.578125 
L 15.328125 46.046875 
Q 20.90625 53.03125 29.546875 53.03125 
Q 34.328125 53.03125 38.59375 51.09375 
Q 42.875 49.171875 45.625 45.671875 
Q 48.390625 42.1875 49.953125 37.25 
Q 51.515625 32.328125 51.515625 26.703125 
Q 51.515625 13.375 44.921875 6.09375 
Q 38.328125 -1.171875 29.109375 -1.171875 
Q 19.921875 -1.171875 14.703125 6.5 
z
M 14.59375 26.3125 
Q 14.59375 17 17.140625 12.84375 
Q 21.296875 6.0625 28.375 6.0625 
Q 34.125 6.0625 38.328125 11.0625 
Q 42.53125 16.0625 42.53125 25.984375 
Q 42.53125 36.140625 38.5 40.96875 
Q 34.46875 45.796875 28.765625 45.796875 
Q 23 45.796875 18.796875 40.796875 
Q 14.59375 35.796875 14.59375 26.3125 
" id="ArialMT-62"/>
      </defs>
      <g style="fill:#262626;" transform="translate(13.3303125 282.43203125)scale(0.1 -0.1)">
       <use xlink:href="#ArialMT-47"/>
       <use x="77.783203125" xlink:href="#ArialMT-69"/>
       <use x="100.0" xlink:href="#ArialMT-74"/>
       <use x="127.783203125" xlink:href="#ArialMT-20"/>
       <use x="155.56640625" xlink:href="#ArialMT-64"/>
       <use x="211.181640625" xlink:href="#ArialMT-65"/>
       <use x="266.796875" xlink:href="#ArialMT-76"/>
       <use x="316.796875" xlink:href="#ArialMT-65"/>
       <use x="372.412109375" xlink:href="#ArialMT-6c"/>
       <use x="394.62890625" xlink:href="#ArialMT-6f"/>
       <use x="450.244140625" xlink:href="#ArialMT-70"/>
       <use x="505.859375" xlink:href="#ArialMT-6d"/>
       <use x="589.16015625" xlink:href="#ArialMT-65"/>
       <use x="644.775390625" xlink:href="#ArialMT-6e"/>
       <use x="700.390625" xlink:href="#ArialMT-74"/>
       <use x="728.173828125" xlink:href="#ArialMT-20"/>
       <use x="755.95703125" xlink:href="#ArialMT-62"/>
       <use x="811.572265625" xlink:href="#ArialMT-75"/>
       <use x="867.1875" xlink:href="#ArialMT-69"/>
       <use x="889.404296875" xlink:href="#ArialMT-6c"/>
       <use x="911.62109375" xlink:href="#ArialMT-64"/>
      </g>
     </g>
    </g>
    <g id="ytick_6">
     <g id="line2d_29">
      <g>
       <use style="fill:#262626;stroke:#262626;" x="117.0475" xlink:href="#m9491d1367c" y="328.593854167"/>
      </g>
     </g>
     <g id="line2d_30">
      <g>
       <use style="fill:#262626;stroke:#262626;" x="554.6025" xlink:href="#m9491d1367c" y="328.593854167"/>
      </g>
     </g>
     <g id="text_13">
      <!-- I'm not sure. -->
      <defs>
       <path d="M 6.640625 46.234375 
L 4.390625 59.625 
L 4.390625 71.578125 
L 14.40625 71.578125 
L 14.40625 59.625 
L 12.0625 46.234375 
z
" id="ArialMT-27"/>
       <path d="M 9.328125 0 
L 9.328125 71.578125 
L 18.796875 71.578125 
L 18.796875 0 
z
" id="ArialMT-49"/>
      </defs>
      <g style="fill:#262626;" transform="translate(55.344375 331.179010417)scale(0.1 -0.1)">
       <use xlink:href="#ArialMT-49"/>
       <use x="27.783203125" xlink:href="#ArialMT-27"/>
       <use x="46.875" xlink:href="#ArialMT-6d"/>
       <use x="130.17578125" xlink:href="#ArialMT-20"/>
       <use x="157.958984375" xlink:href="#ArialMT-6e"/>
       <use x="213.57421875" xlink:href="#ArialMT-6f"/>
       <use x="269.189453125" xlink:href="#ArialMT-74"/>
       <use x="296.97265625" xlink:href="#ArialMT-20"/>
       <use x="324.755859375" xlink:href="#ArialMT-73"/>
       <use x="374.755859375" xlink:href="#ArialMT-75"/>
       <use x="430.37109375" xlink:href="#ArialMT-72"/>
       <use x="463.671875" xlink:href="#ArialMT-65"/>
       <use x="519.287109375" xlink:href="#ArialMT-2e"/>
      </g>
     </g>
    </g>
   </g>
   <g id="patch_3">
    <path clip-path="url(#pf4da756582)" d="M 117.0475 65.031104 
L 502.245491 65.031104 
L 502.245491 104.077438 
L 117.0475 104.077438 
z
" style="fill:#e7d4cd;"/>
   </g>
   <g id="patch_4">
    <path clip-path="url(#pf4da756582)" d="M 117.0475 113.839021 
L 190.596631 113.839021 
L 190.596631 152.885354 
L 117.0475 152.885354 
z
" style="fill:#e7d4cd;"/>
   </g>
   <g id="patch_5">
    <path clip-path="url(#pf4da756582)" d="M 117.0475 162.646938 
L 134.499836 162.646938 
L 134.499836 201.693271 
L 117.0475 201.693271 
z
" style="fill:#e7d4cd;"/>
   </g>
   <g id="patch_6">
    <path clip-path="url(#pf4da756582)" d="M 117.0475 211.454854 
L 124.527073 211.454854 
L 124.527073 250.501188 
L 117.0475 250.501188 
z
" style="fill:#e7d4cd;"/>
   </g>
   <g id="patch_7">
    <path clip-path="url(#pf4da756582)" d="M 117.0475 260.262771 
L 173.144295 260.262771 
L 173.144295 299.309104 
L 117.0475 299.309104 
z
" style="fill:#e7d4cd;"/>
   </g>
   <g id="patch_8">
    <path clip-path="url(#pf4da756582)" d="M 117.0475 309.070687 
L 133.253241 309.070687 
L 133.253241 348.117021 
L 117.0475 348.117021 
z
" style="fill:#e7d4cd;"/>
   </g>
   <g id="patch_9">
    <path clip-path="url(#pf4da756582)" d="M 117.0475 65.031104 
L 466.094224 65.031104 
L 466.094224 104.077438 
L 117.0475 104.077438 
z
" style="fill:#94a276;"/>
   </g>
   <g id="patch_10">
    <path clip-path="url(#pf4da756582)" d="M 117.0475 113.839021 
L 186.856845 113.839021 
L 186.856845 152.885354 
L 117.0475 152.885354 
z
" style="fill:#94a276;"/>
   </g>
   <g id="patch_11">
    <path clip-path="url(#pf4da756582)" d="M 117.0475 162.646938 
L 133.253241 162.646938 
L 133.253241 201.693271 
L 117.0475 201.693271 
z
" style="fill:#94a276;"/>
   </g>
   <g id="patch_12">
    <path clip-path="url(#pf4da756582)" d="M 117.0475 211.454854 
L 124.527073 211.454854 
L 124.527073 250.501188 
L 117.0475 250.501188 
z
" style="fill:#94a276;"/>
   </g>
   <g id="patch_13">
    <path clip-path="url(#pf4da756582)" d="M 117.0475 260.262771 
L 170.651104 260.262771 
L 170.651104 299.309104 
L 117.0475 299.309104 
z
" style="fill:#94a276;"/>
   </g>
   <g id="patch_14">
    <path clip-path="url(#pf4da756582)" d="M 117.0475 309.070687 
L 122.033882 309.070687 
L 122.033882 348.117021 
L 117.0475 348.117021 
z
" style="fill:#94a276;"/>
   </g>
   <g id="patch_15">
    <path clip-path="url(#pf4da756582)" d="M 117.0475 65.031104 
L 315.256175 65.031104 
L 315.256175 104.077438 
L 117.0475 104.077438 
z
" style="fill:#417157;"/>
   </g>
   <g id="patch_16">
    <path clip-path="url(#pf4da756582)" d="M 117.0475 113.839021 
L 156.938554 113.839021 
L 156.938554 152.885354 
L 117.0475 152.885354 
z
" style="fill:#417157;"/>
   </g>
   <g id="patch_17">
    <path clip-path="url(#pf4da756582)" d="M 117.0475 162.646938 
L 127.020264 162.646938 
L 127.020264 201.693271 
L 117.0475 201.693271 
z
" style="fill:#417157;"/>
   </g>
   <g id="patch_18">
    <path clip-path="url(#pf4da756582)" d="M 117.0475 211.454854 
L 124.527073 211.454854 
L 124.527073 250.501188 
L 117.0475 250.501188 
z
" style="fill:#417157;"/>
   </g>
   <g id="patch_19">
    <path clip-path="url(#pf4da756582)" d="M 117.0475 260.262771 
L 151.952172 260.262771 
L 151.952172 299.309104 
L 117.0475 299.309104 
z
" style="fill:#417157;"/>
   </g>
   <g id="patch_20">
    <path clip-path="url(#pf4da756582)" d="M 117.0475 309.070687 
L 119.540691 309.070687 
L 119.540691 348.117021 
L 117.0475 348.117021 
z
" style="fill:#417157;"/>
   </g>
   <g id="patch_21">
    <path clip-path="url(#pf4da756582)" d="M 117.0475 65.031104 
L 251.679808 65.031104 
L 251.679808 104.077438 
L 117.0475 104.077438 
z
" style="fill:#1a2a35;"/>
   </g>
   <g id="patch_22">
    <path clip-path="url(#pf4da756582)" d="M 117.0475 113.839021 
L 141.979409 113.839021 
L 141.979409 152.885354 
L 117.0475 152.885354 
z
" style="fill:#1a2a35;"/>
   </g>
   <g id="patch_23">
    <path clip-path="url(#pf4da756582)" d="M 117.0475 162.646938 
L 123.280477 162.646938 
L 123.280477 201.693271 
L 117.0475 201.693271 
z
" style="fill:#1a2a35;"/>
   </g>
   <g id="patch_24">
    <path clip-path="url(#pf4da756582)" d="M 117.0475 211.454854 
L 123.280477 211.454854 
L 123.280477 250.501188 
L 117.0475 250.501188 
z
" style="fill:#1a2a35;"/>
   </g>
   <g id="patch_25">
    <path clip-path="url(#pf4da756582)" d="M 117.0475 260.262771 
L 139.486218 260.262771 
L 139.486218 299.309104 
L 117.0475 299.309104 
z
" style="fill:#1a2a35;"/>
   </g>
   <g id="patch_26">
    <path clip-path="url(#pf4da756582)" d="M 117.0475 309.070687 
L 117.0475 309.070687 
L 117.0475 348.117021 
L 117.0475 348.117021 
z
" style="fill:#1a2a35;"/>
   </g>
   <g id="line2d_31">
    <path clip-path="url(#pf4da756582)" style="fill:none;stroke:#424242;stroke-linecap:round;stroke-width:3.15;"/>
   </g>
   <g id="line2d_32">
    <path clip-path="url(#pf4da756582)" style="fill:none;stroke:#424242;stroke-linecap:round;stroke-width:3.15;"/>
   </g>
   <g id="line2d_33">
    <path clip-path="url(#pf4da756582)" style="fill:none;stroke:#424242;stroke-linecap:round;stroke-width:3.15;"/>
   </g>
   <g id="line2d_34">
    <path clip-path="url(#pf4da756582)" style="fill:none;stroke:#424242;stroke-linecap:round;stroke-width:3.15;"/>
   </g>
   <g id="line2d_35">
    <path clip-path="url(#pf4da756582)" style="fill:none;stroke:#424242;stroke-linecap:round;stroke-width:3.15;"/>
   </g>
   <g id="line2d_36">
    <path clip-path="url(#pf4da756582)" style="fill:none;stroke:#424242;stroke-linecap:round;stroke-width:3.15;"/>
   </g>
   <g id="line2d_37">
    <path clip-path="url(#pf4da756582)" style="fill:none;stroke:#424242;stroke-linecap:round;stroke-width:3.15;"/>
   </g>
   <g id="line2d_38">
    <path clip-path="url(#pf4da756582)" style="fill:none;stroke:#424242;stroke-linecap:round;stroke-width:3.15;"/>
   </g>
   <g id="line2d_39">
    <path clip-path="url(#pf4da756582)" style="fill:none;stroke:#424242;stroke-linecap:round;stroke-width:3.15;"/>
   </g>
   <g id="line2d_40">
    <path clip-path="url(#pf4da756582)" style="fill:none;stroke:#424242;stroke-linecap:round;stroke-width:3.15;"/>
   </g>
   <g id="line2d_41">
    <path clip-path="url(#pf4da756582)" style="fill:none;stroke:#424242;stroke-linecap:round;stroke-width:3.15;"/>
   </g>
   <g id="line2d_42">
    <path clip-path="url(#pf4da756582)" style="fill:none;stroke:#424242;stroke-linecap:round;stroke-width:3.15;"/>
   </g>
   <g id="line2d_43">
    <path clip-path="url(#pf4da756582)" style="fill:none;stroke:#424242;stroke-linecap:round;stroke-width:3.15;"/>
   </g>
   <g id="line2d_44">
    <path clip-path="url(#pf4da756582)" style="fill:none;stroke:#424242;stroke-linecap:round;stroke-width:3.15;"/>
   </g>
   <g id="line2d_45">
    <path clip-path="url(#pf4da756582)" style="fill:none;stroke:#424242;stroke-linecap:round;stroke-width:3.15;"/>
   </g>
   <g id="line2d_46">
    <path clip-path="url(#pf4da756582)" style="fill:none;stroke:#424242;stroke-linecap:round;stroke-width:3.15;"/>
   </g>
   <g id="line2d_47">
    <path clip-path="url(#pf4da756582)" style="fill:none;stroke:#424242;stroke-linecap:round;stroke-width:3.15;"/>
   </g>
   <g id="line2d_48">
    <path clip-path="url(#pf4da756582)" style="fill:none;stroke:#424242;stroke-linecap:round;stroke-width:3.15;"/>
   </g>
   <g id="line2d_49">
    <path clip-path="url(#pf4da756582)" style="fill:none;stroke:#424242;stroke-linecap:round;stroke-width:3.15;"/>
   </g>
   <g id="line2d_50">
    <path clip-path="url(#pf4da756582)" style="fill:none;stroke:#424242;stroke-linecap:round;stroke-width:3.15;"/>
   </g>
   <g id="line2d_51">
    <path clip-path="url(#pf4da756582)" style="fill:none;stroke:#424242;stroke-linecap:round;stroke-width:3.15;"/>
   </g>
   <g id="line2d_52">
    <path clip-path="url(#pf4da756582)" style="fill:none;stroke:#424242;stroke-linecap:round;stroke-width:3.15;"/>
   </g>
   <g id="line2d_53">
    <path clip-path="url(#pf4da756582)" style="fill:none;stroke:#424242;stroke-linecap:round;stroke-width:3.15;"/>
   </g>
   <g id="line2d_54">
    <path clip-path="url(#pf4da756582)" style="fill:none;stroke:#424242;stroke-linecap:round;stroke-width:3.15;"/>
   </g>
   <g id="patch_27">
    <path d="M 117.0475 352.997813 
L 554.6025 352.997813 
" style="fill:none;"/>
   </g>
   <g id="patch_28">
    <path d="M 117.0475 352.997812 
L 117.0475 60.150313 
" style="fill:none;"/>
   </g>
   <g id="patch_29">
    <path d="M 117.0475 60.150313 
L 554.6025 60.150313 
" style="fill:none;"/>
   </g>
   <g id="patch_30">
    <path d="M 554.6025 352.997812 
L 554.6025 60.150313 
" style="fill:none;"/>
   </g>
   <g id="text_14">
    <!-- Which version(s) of Haxe are you using, or -->
    <defs>
     <path d="M 6.203125 -19.96875 
L 5.21875 -11.71875 
Q 8.109375 -12.5 10.25 -12.5 
Q 13.1875 -12.5 14.9375 -11.515625 
Q 16.703125 -10.546875 17.828125 -8.796875 
Q 18.65625 -7.46875 20.515625 -2.25 
Q 20.75 -1.515625 21.296875 -0.09375 
L 1.609375 51.859375 
L 11.078125 51.859375 
L 21.875 21.828125 
Q 23.96875 16.109375 25.640625 9.8125 
Q 27.15625 15.875 29.25 21.625 
L 40.328125 51.859375 
L 49.125 51.859375 
L 29.390625 -0.875 
Q 26.21875 -9.421875 24.46875 -12.640625 
Q 22.125 -17 19.09375 -19.015625 
Q 16.0625 -21.046875 11.859375 -21.046875 
Q 9.328125 -21.046875 6.203125 -19.96875 
" id="ArialMT-79"/>
     <path d="M 20.21875 0 
L 1.21875 71.578125 
L 10.9375 71.578125 
L 21.828125 24.65625 
Q 23.578125 17.28125 24.859375 10.015625 
Q 27.59375 21.484375 28.078125 23.25 
L 41.703125 71.578125 
L 53.125 71.578125 
L 63.375 35.359375 
Q 67.234375 21.875 68.953125 10.015625 
Q 70.3125 16.796875 72.515625 25.59375 
L 83.734375 71.578125 
L 93.265625 71.578125 
L 73.640625 0 
L 64.5 0 
L 49.421875 54.546875 
Q 47.515625 61.375 47.171875 62.9375 
Q 46.046875 58.015625 45.0625 54.546875 
L 29.890625 0 
z
" id="ArialMT-57"/>
     <path d="M 0.734375 0 
L 19.671875 26.953125 
L 2.15625 51.859375 
L 13.140625 51.859375 
L 21.09375 39.703125 
Q 23.34375 36.234375 24.703125 33.890625 
Q 26.859375 37.109375 28.65625 39.59375 
L 37.40625 51.859375 
L 47.90625 51.859375 
L 29.984375 27.4375 
L 49.265625 0 
L 38.484375 0 
L 27.828125 16.109375 
L 25 20.453125 
L 11.375 0 
z
" id="ArialMT-78"/>
     <path d="M 12.359375 -21.046875 
L 6.0625 -21.046875 
Q 20.65625 2.390625 20.65625 25.875 
Q 20.65625 35.0625 18.5625 44.09375 
Q 16.890625 51.421875 13.921875 58.15625 
Q 12.015625 62.546875 6.0625 72.796875 
L 12.359375 72.796875 
Q 21.53125 60.546875 25.921875 48.1875 
Q 29.6875 37.546875 29.6875 25.921875 
Q 29.6875 12.75 24.625 0.4375 
Q 19.578125 -11.859375 12.359375 -21.046875 
" id="ArialMT-29"/>
     <path d="M 8.015625 0 
L 8.015625 71.578125 
L 17.484375 71.578125 
L 17.484375 42.1875 
L 54.6875 42.1875 
L 54.6875 71.578125 
L 64.15625 71.578125 
L 64.15625 0 
L 54.6875 0 
L 54.6875 33.734375 
L 17.484375 33.734375 
L 17.484375 0 
z
" id="ArialMT-48"/>
     <path d="M 8.890625 0 
L 8.890625 10.015625 
L 18.890625 10.015625 
L 18.890625 0 
Q 18.890625 -5.515625 16.9375 -8.90625 
Q 14.984375 -12.3125 10.75 -14.15625 
L 8.296875 -10.40625 
Q 11.078125 -9.1875 12.390625 -6.8125 
Q 13.71875 -4.4375 13.875 0 
z
" id="ArialMT-2c"/>
     <path d="M 6.59375 0 
L 6.59375 71.578125 
L 15.375 71.578125 
L 15.375 45.90625 
Q 21.53125 53.03125 30.90625 53.03125 
Q 36.671875 53.03125 40.921875 50.75 
Q 45.171875 48.484375 47 44.484375 
Q 48.828125 40.484375 48.828125 32.859375 
L 48.828125 0 
L 40.046875 0 
L 40.046875 32.859375 
Q 40.046875 39.453125 37.1875 42.453125 
Q 34.328125 45.453125 29.109375 45.453125 
Q 25.203125 45.453125 21.75 43.421875 
Q 18.3125 41.40625 16.84375 37.9375 
Q 15.375 34.46875 15.375 28.375 
L 15.375 0 
z
" id="ArialMT-68"/>
     <path d="M 23.390625 -21.046875 
Q 16.109375 -11.859375 11.078125 0.4375 
Q 6.0625 12.75 6.0625 25.921875 
Q 6.0625 37.546875 9.8125 48.1875 
Q 14.203125 60.546875 23.390625 72.796875 
L 29.6875 72.796875 
Q 23.78125 62.640625 21.875 58.296875 
Q 18.890625 51.5625 17.1875 44.234375 
Q 15.09375 35.109375 15.09375 25.875 
Q 15.09375 2.390625 29.6875 -21.046875 
z
" id="ArialMT-28"/>
    </defs>
    <g style="fill:#262626;" transform="translate(199.77875 24.3095625)scale(0.144 -0.144)">
     <use xlink:href="#ArialMT-57"/>
     <use x="94.384765625" xlink:href="#ArialMT-68"/>
     <use x="150.0" xlink:href="#ArialMT-69"/>
     <use x="172.216796875" xlink:href="#ArialMT-63"/>
     <use x="222.216796875" xlink:href="#ArialMT-68"/>
     <use x="277.83203125" xlink:href="#ArialMT-20"/>
     <use x="305.615234375" xlink:href="#ArialMT-76"/>
     <use x="355.615234375" xlink:href="#ArialMT-65"/>
     <use x="411.23046875" xlink:href="#ArialMT-72"/>
     <use x="444.53125" xlink:href="#ArialMT-73"/>
     <use x="494.53125" xlink:href="#ArialMT-69"/>
     <use x="516.748046875" xlink:href="#ArialMT-6f"/>
     <use x="572.36328125" xlink:href="#ArialMT-6e"/>
     <use x="627.978515625" xlink:href="#ArialMT-28"/>
     <use x="661.279296875" xlink:href="#ArialMT-73"/>
     <use x="711.279296875" xlink:href="#ArialMT-29"/>
     <use x="744.580078125" xlink:href="#ArialMT-20"/>
     <use x="772.36328125" xlink:href="#ArialMT-6f"/>
     <use x="827.978515625" xlink:href="#ArialMT-66"/>
     <use x="855.76171875" xlink:href="#ArialMT-20"/>
     <use x="883.544921875" xlink:href="#ArialMT-48"/>
     <use x="955.76171875" xlink:href="#ArialMT-61"/>
     <use x="1011.376953125" xlink:href="#ArialMT-78"/>
     <use x="1061.376953125" xlink:href="#ArialMT-65"/>
     <use x="1116.9921875" xlink:href="#ArialMT-20"/>
     <use x="1144.775390625" xlink:href="#ArialMT-61"/>
     <use x="1200.390625" xlink:href="#ArialMT-72"/>
     <use x="1233.69140625" xlink:href="#ArialMT-65"/>
     <use x="1289.306640625" xlink:href="#ArialMT-20"/>
     <use x="1317.08984375" xlink:href="#ArialMT-79"/>
     <use x="1367.08984375" xlink:href="#ArialMT-6f"/>
     <use x="1422.705078125" xlink:href="#ArialMT-75"/>
     <use x="1478.3203125" xlink:href="#ArialMT-20"/>
     <use x="1506.103515625" xlink:href="#ArialMT-75"/>
     <use x="1561.71875" xlink:href="#ArialMT-73"/>
     <use x="1611.71875" xlink:href="#ArialMT-69"/>
     <use x="1633.935546875" xlink:href="#ArialMT-6e"/>
     <use x="1689.55078125" xlink:href="#ArialMT-67"/>
     <use x="1745.166015625" xlink:href="#ArialMT-2c"/>
     <use x="1772.94921875" xlink:href="#ArialMT-20"/>
     <use x="1800.732421875" xlink:href="#ArialMT-6f"/>
     <use x="1856.34765625" xlink:href="#ArialMT-72"/>
    </g>
    <!-- want to use / test? -->
    <defs>
     <path d="M 23.046875 17.625 
Q 23 19.390625 23 20.265625 
Q 23 25.4375 24.46875 29.203125 
Q 25.53125 32.03125 27.9375 34.90625 
Q 29.6875 37.015625 34.25 41.03125 
Q 38.8125 45.0625 40.171875 47.453125 
Q 41.546875 49.859375 41.546875 52.6875 
Q 41.546875 57.8125 37.546875 61.6875 
Q 33.546875 65.578125 27.734375 65.578125 
Q 22.125 65.578125 18.359375 62.0625 
Q 14.59375 58.546875 13.421875 51.078125 
L 4.390625 52.15625 
Q 5.609375 62.15625 11.640625 67.46875 
Q 17.671875 72.796875 27.59375 72.796875 
Q 38.09375 72.796875 44.34375 67.078125 
Q 50.59375 61.375 50.59375 53.265625 
Q 50.59375 48.578125 48.390625 44.625 
Q 46.1875 40.671875 39.796875 35.015625 
Q 35.5 31.203125 34.171875 29.390625 
Q 32.859375 27.59375 32.21875 25.25 
Q 31.59375 22.90625 31.5 17.625 
z
M 22.515625 0 
L 22.515625 10.015625 
L 32.515625 10.015625 
L 32.515625 0 
z
" id="ArialMT-3f"/>
     <path d="M 16.15625 0 
L 0.296875 51.859375 
L 9.375 51.859375 
L 17.625 21.921875 
L 20.703125 10.796875 
Q 20.90625 11.625 23.390625 21.484375 
L 31.640625 51.859375 
L 40.671875 51.859375 
L 48.4375 21.78125 
L 51.03125 11.859375 
L 54 21.875 
L 62.890625 51.859375 
L 71.4375 51.859375 
L 55.21875 0 
L 46.09375 0 
L 37.84375 31.0625 
L 35.84375 39.890625 
L 25.34375 0 
z
" id="ArialMT-77"/>
     <path d="M 0 -1.21875 
L 20.75 72.796875 
L 27.78125 72.796875 
L 7.078125 -1.21875 
z
" id="ArialMT-2f"/>
    </defs>
    <g style="fill:#262626;" transform="translate(277.395875 39.7090125)scale(0.144 -0.144)">
     <use xlink:href="#ArialMT-77"/>
     <use x="72.216796875" xlink:href="#ArialMT-61"/>
     <use x="127.83203125" xlink:href="#ArialMT-6e"/>
     <use x="183.447265625" xlink:href="#ArialMT-74"/>
     <use x="211.23046875" xlink:href="#ArialMT-20"/>
     <use x="239.013671875" xlink:href="#ArialMT-74"/>
     <use x="266.796875" xlink:href="#ArialMT-6f"/>
     <use x="322.412109375" xlink:href="#ArialMT-20"/>
     <use x="350.1953125" xlink:href="#ArialMT-75"/>
     <use x="405.810546875" xlink:href="#ArialMT-73"/>
     <use x="455.810546875" xlink:href="#ArialMT-65"/>
     <use x="511.42578125" xlink:href="#ArialMT-20"/>
     <use x="539.208984375" xlink:href="#ArialMT-2f"/>
     <use x="566.9921875" xlink:href="#ArialMT-20"/>
     <use x="594.775390625" xlink:href="#ArialMT-74"/>
     <use x="622.55859375" xlink:href="#ArialMT-65"/>
     <use x="678.173828125" xlink:href="#ArialMT-73"/>
     <use x="728.173828125" xlink:href="#ArialMT-74"/>
     <use x="755.95703125" xlink:href="#ArialMT-3f"/>
    </g>
    <!-- (allow multiple selections) -->
    <g style="fill:#262626;" transform="translate(253.799 55.1503125)scale(0.144 -0.144)">
     <use xlink:href="#ArialMT-28"/>
     <use x="33.30078125" xlink:href="#ArialMT-61"/>
     <use x="88.916015625" xlink:href="#ArialMT-6c"/>
     <use x="111.1328125" xlink:href="#ArialMT-6c"/>
     <use x="133.349609375" xlink:href="#ArialMT-6f"/>
     <use x="188.96484375" xlink:href="#ArialMT-77"/>
     <use x="261.181640625" xlink:href="#ArialMT-20"/>
     <use x="288.96484375" xlink:href="#ArialMT-6d"/>
     <use x="372.265625" xlink:href="#ArialMT-75"/>
     <use x="427.880859375" xlink:href="#ArialMT-6c"/>
     <use x="450.09765625" xlink:href="#ArialMT-74"/>
     <use x="477.880859375" xlink:href="#ArialMT-69"/>
     <use x="500.09765625" xlink:href="#ArialMT-70"/>
     <use x="555.712890625" xlink:href="#ArialMT-6c"/>
     <use x="577.9296875" xlink:href="#ArialMT-65"/>
     <use x="633.544921875" xlink:href="#ArialMT-20"/>
     <use x="661.328125" xlink:href="#ArialMT-73"/>
     <use x="711.328125" xlink:href="#ArialMT-65"/>
     <use x="766.943359375" xlink:href="#ArialMT-6c"/>
     <use x="789.16015625" xlink:href="#ArialMT-65"/>
     <use x="844.775390625" xlink:href="#ArialMT-63"/>
     <use x="894.775390625" xlink:href="#ArialMT-74"/>
     <use x="922.55859375" xlink:href="#ArialMT-69"/>
     <use x="944.775390625" xlink:href="#ArialMT-6f"/>
     <use x="1000.390625" xlink:href="#ArialMT-6e"/>
     <use x="1056.005859375" xlink:href="#ArialMT-73"/>
     <use x="1106.005859375" xlink:href="#ArialMT-29"/>
    </g>
   </g>
   <g id="legend_1">
    <g id="patch_31">
     <path d="M 251.822812 347.997812 
L 549.6025 347.997812 
L 549.6025 287.816562 
L 251.822812 287.816562 
z
" style="fill:#ffffff;opacity:0.8;stroke:#ffffff;stroke-linejoin:miter;"/>
    </g>
    <g id="patch_32">
     <path d="M 255.822812 299.09625 
L 275.822812 299.09625 
L 275.822812 292.09625 
L 255.822812 292.09625 
z
" style="fill:#1a2a35;"/>
    </g>
    <g id="text_15">
     <!-- Haxe is one of the main tools I used for professional works. -->
     <defs>
      <path d="M 6.640625 0 
L 6.640625 71.578125 
L 15.4375 71.578125 
L 15.4375 30.765625 
L 36.234375 51.859375 
L 47.609375 51.859375 
L 27.78125 32.625 
L 49.609375 0 
L 38.765625 0 
L 21.625 26.515625 
L 15.4375 20.5625 
L 15.4375 0 
z
" id="ArialMT-6b"/>
     </defs>
     <g style="fill:#262626;" transform="translate(283.8228125 299.09625)scale(0.1 -0.1)">
      <use xlink:href="#ArialMT-48"/>
      <use x="72.216796875" xlink:href="#ArialMT-61"/>
      <use x="127.83203125" xlink:href="#ArialMT-78"/>
      <use x="177.83203125" xlink:href="#ArialMT-65"/>
      <use x="233.447265625" xlink:href="#ArialMT-20"/>
      <use x="261.23046875" xlink:href="#ArialMT-69"/>
      <use x="283.447265625" xlink:href="#ArialMT-73"/>
      <use x="333.447265625" xlink:href="#ArialMT-20"/>
      <use x="361.23046875" xlink:href="#ArialMT-6f"/>
      <use x="416.845703125" xlink:href="#ArialMT-6e"/>
      <use x="472.4609375" xlink:href="#ArialMT-65"/>
      <use x="528.076171875" xlink:href="#ArialMT-20"/>
      <use x="555.859375" xlink:href="#ArialMT-6f"/>
      <use x="611.474609375" xlink:href="#ArialMT-66"/>
      <use x="639.2578125" xlink:href="#ArialMT-20"/>
      <use x="667.041015625" xlink:href="#ArialMT-74"/>
      <use x="694.82421875" xlink:href="#ArialMT-68"/>
      <use x="750.439453125" xlink:href="#ArialMT-65"/>
      <use x="806.0546875" xlink:href="#ArialMT-20"/>
      <use x="833.837890625" xlink:href="#ArialMT-6d"/>
      <use x="917.138671875" xlink:href="#ArialMT-61"/>
      <use x="972.75390625" xlink:href="#ArialMT-69"/>
      <use x="994.970703125" xlink:href="#ArialMT-6e"/>
      <use x="1050.5859375" xlink:href="#ArialMT-20"/>
      <use x="1078.369140625" xlink:href="#ArialMT-74"/>
      <use x="1106.15234375" xlink:href="#ArialMT-6f"/>
      <use x="1161.767578125" xlink:href="#ArialMT-6f"/>
      <use x="1217.3828125" xlink:href="#ArialMT-6c"/>
      <use x="1239.599609375" xlink:href="#ArialMT-73"/>
      <use x="1289.599609375" xlink:href="#ArialMT-20"/>
      <use x="1317.3828125" xlink:href="#ArialMT-49"/>
      <use x="1345.166015625" xlink:href="#ArialMT-20"/>
      <use x="1372.94921875" xlink:href="#ArialMT-75"/>
      <use x="1428.564453125" xlink:href="#ArialMT-73"/>
      <use x="1478.564453125" xlink:href="#ArialMT-65"/>
      <use x="1534.1796875" xlink:href="#ArialMT-64"/>
      <use x="1589.794921875" xlink:href="#ArialMT-20"/>
      <use x="1617.578125" xlink:href="#ArialMT-66"/>
      <use x="1645.361328125" xlink:href="#ArialMT-6f"/>
      <use x="1700.9765625" xlink:href="#ArialMT-72"/>
      <use x="1734.27734375" xlink:href="#ArialMT-20"/>
      <use x="1762.060546875" xlink:href="#ArialMT-70"/>
      <use x="1817.67578125" xlink:href="#ArialMT-72"/>
      <use x="1850.9765625" xlink:href="#ArialMT-6f"/>
      <use x="1906.591796875" xlink:href="#ArialMT-66"/>
      <use x="1934.375" xlink:href="#ArialMT-65"/>
      <use x="1989.990234375" xlink:href="#ArialMT-73"/>
      <use x="2039.990234375" xlink:href="#ArialMT-73"/>
      <use x="2089.990234375" xlink:href="#ArialMT-69"/>
      <use x="2112.20703125" xlink:href="#ArialMT-6f"/>
      <use x="2167.822265625" xlink:href="#ArialMT-6e"/>
      <use x="2223.4375" xlink:href="#ArialMT-61"/>
      <use x="2279.052734375" xlink:href="#ArialMT-6c"/>
      <use x="2301.26953125" xlink:href="#ArialMT-20"/>
      <use x="2329.052734375" xlink:href="#ArialMT-77"/>
      <use x="2401.26953125" xlink:href="#ArialMT-6f"/>
      <use x="2456.884765625" xlink:href="#ArialMT-72"/>
      <use x="2490.185546875" xlink:href="#ArialMT-6b"/>
      <use x="2540.185546875" xlink:href="#ArialMT-73"/>
      <use x="2590.185546875" xlink:href="#ArialMT-2e"/>
     </g>
    </g>
    <g id="patch_33">
     <path d="M 255.822812 313.363437 
L 275.822812 313.363437 
L 275.822812 306.363437 
L 255.822812 306.363437 
z
" style="fill:#417157;"/>
    </g>
    <g id="text_16">
     <!-- I use Haxe occasionally for professional works. -->
     <g style="fill:#262626;" transform="translate(283.8228125 313.3634375)scale(0.1 -0.1)">
      <use xlink:href="#ArialMT-49"/>
      <use x="27.783203125" xlink:href="#ArialMT-20"/>
      <use x="55.56640625" xlink:href="#ArialMT-75"/>
      <use x="111.181640625" xlink:href="#ArialMT-73"/>
      <use x="161.181640625" xlink:href="#ArialMT-65"/>
      <use x="216.796875" xlink:href="#ArialMT-20"/>
      <use x="244.580078125" xlink:href="#ArialMT-48"/>
      <use x="316.796875" xlink:href="#ArialMT-61"/>
      <use x="372.412109375" xlink:href="#ArialMT-78"/>
      <use x="422.412109375" xlink:href="#ArialMT-65"/>
      <use x="478.02734375" xlink:href="#ArialMT-20"/>
      <use x="505.810546875" xlink:href="#ArialMT-6f"/>
      <use x="561.42578125" xlink:href="#ArialMT-63"/>
      <use x="611.42578125" xlink:href="#ArialMT-63"/>
      <use x="661.42578125" xlink:href="#ArialMT-61"/>
      <use x="717.041015625" xlink:href="#ArialMT-73"/>
      <use x="767.041015625" xlink:href="#ArialMT-69"/>
      <use x="789.2578125" xlink:href="#ArialMT-6f"/>
      <use x="844.873046875" xlink:href="#ArialMT-6e"/>
      <use x="900.48828125" xlink:href="#ArialMT-61"/>
      <use x="956.103515625" xlink:href="#ArialMT-6c"/>
      <use x="978.3203125" xlink:href="#ArialMT-6c"/>
      <use x="1000.537109375" xlink:href="#ArialMT-79"/>
      <use x="1050.537109375" xlink:href="#ArialMT-20"/>
      <use x="1078.3203125" xlink:href="#ArialMT-66"/>
      <use x="1106.103515625" xlink:href="#ArialMT-6f"/>
      <use x="1161.71875" xlink:href="#ArialMT-72"/>
      <use x="1195.01953125" xlink:href="#ArialMT-20"/>
      <use x="1222.802734375" xlink:href="#ArialMT-70"/>
      <use x="1278.41796875" xlink:href="#ArialMT-72"/>
      <use x="1311.71875" xlink:href="#ArialMT-6f"/>
      <use x="1367.333984375" xlink:href="#ArialMT-66"/>
      <use x="1395.1171875" xlink:href="#ArialMT-65"/>
      <use x="1450.732421875" xlink:href="#ArialMT-73"/>
      <use x="1500.732421875" xlink:href="#ArialMT-73"/>
      <use x="1550.732421875" xlink:href="#ArialMT-69"/>
      <use x="1572.94921875" xlink:href="#ArialMT-6f"/>
      <use x="1628.564453125" xlink:href="#ArialMT-6e"/>
      <use x="1684.1796875" xlink:href="#ArialMT-61"/>
      <use x="1739.794921875" xlink:href="#ArialMT-6c"/>
      <use x="1762.01171875" xlink:href="#ArialMT-20"/>
      <use x="1789.794921875" xlink:href="#ArialMT-77"/>
      <use x="1862.01171875" xlink:href="#ArialMT-6f"/>
      <use x="1917.626953125" xlink:href="#ArialMT-72"/>
      <use x="1950.927734375" xlink:href="#ArialMT-6b"/>
      <use x="2000.927734375" xlink:href="#ArialMT-73"/>
      <use x="2050.927734375" xlink:href="#ArialMT-2e"/>
     </g>
    </g>
    <g id="patch_34">
     <path d="M 255.822812 327.747812 
L 275.822812 327.747812 
L 275.822812 320.747812 
L 255.822812 320.747812 
z
" style="fill:#94a276;"/>
    </g>
    <g id="text_17">
     <!-- I use Haxe but I'm not paid for that. -->
     <g style="fill:#262626;" transform="translate(283.8228125 327.7478125)scale(0.1 -0.1)">
      <use xlink:href="#ArialMT-49"/>
      <use x="27.783203125" xlink:href="#ArialMT-20"/>
      <use x="55.56640625" xlink:href="#ArialMT-75"/>
      <use x="111.181640625" xlink:href="#ArialMT-73"/>
      <use x="161.181640625" xlink:href="#ArialMT-65"/>
      <use x="216.796875" xlink:href="#ArialMT-20"/>
      <use x="244.580078125" xlink:href="#ArialMT-48"/>
      <use x="316.796875" xlink:href="#ArialMT-61"/>
      <use x="372.412109375" xlink:href="#ArialMT-78"/>
      <use x="422.412109375" xlink:href="#ArialMT-65"/>
      <use x="478.02734375" xlink:href="#ArialMT-20"/>
      <use x="505.810546875" xlink:href="#ArialMT-62"/>
      <use x="561.42578125" xlink:href="#ArialMT-75"/>
      <use x="617.041015625" xlink:href="#ArialMT-74"/>
      <use x="644.82421875" xlink:href="#ArialMT-20"/>
      <use x="672.607421875" xlink:href="#ArialMT-49"/>
      <use x="700.390625" xlink:href="#ArialMT-27"/>
      <use x="719.482421875" xlink:href="#ArialMT-6d"/>
      <use x="802.783203125" xlink:href="#ArialMT-20"/>
      <use x="830.56640625" xlink:href="#ArialMT-6e"/>
      <use x="886.181640625" xlink:href="#ArialMT-6f"/>
      <use x="941.796875" xlink:href="#ArialMT-74"/>
      <use x="969.580078125" xlink:href="#ArialMT-20"/>
      <use x="997.36328125" xlink:href="#ArialMT-70"/>
      <use x="1052.978515625" xlink:href="#ArialMT-61"/>
      <use x="1108.59375" xlink:href="#ArialMT-69"/>
      <use x="1130.810546875" xlink:href="#ArialMT-64"/>
      <use x="1186.42578125" xlink:href="#ArialMT-20"/>
      <use x="1214.208984375" xlink:href="#ArialMT-66"/>
      <use x="1241.9921875" xlink:href="#ArialMT-6f"/>
      <use x="1297.607421875" xlink:href="#ArialMT-72"/>
      <use x="1330.908203125" xlink:href="#ArialMT-20"/>
      <use x="1358.69140625" xlink:href="#ArialMT-74"/>
      <use x="1386.474609375" xlink:href="#ArialMT-68"/>
      <use x="1442.08984375" xlink:href="#ArialMT-61"/>
      <use x="1497.705078125" xlink:href="#ArialMT-74"/>
      <use x="1525.48828125" xlink:href="#ArialMT-2e"/>
     </g>
    </g>
    <g id="patch_35">
     <path d="M 255.822812 341.893125 
L 275.822812 341.893125 
L 275.822812 334.893125 
L 255.822812 334.893125 
z
" style="fill:#e7d4cd;"/>
    </g>
    <g id="text_18">
     <!-- I do not use Haxe but I'm interested in using it. -->
     <g style="fill:#262626;" transform="translate(283.8228125 341.893125)scale(0.1 -0.1)">
      <use xlink:href="#ArialMT-49"/>
      <use x="27.783203125" xlink:href="#ArialMT-20"/>
      <use x="55.56640625" xlink:href="#ArialMT-64"/>
      <use x="111.181640625" xlink:href="#ArialMT-6f"/>
      <use x="166.796875" xlink:href="#ArialMT-20"/>
      <use x="194.580078125" xlink:href="#ArialMT-6e"/>
      <use x="250.1953125" xlink:href="#ArialMT-6f"/>
      <use x="305.810546875" xlink:href="#ArialMT-74"/>
      <use x="333.59375" xlink:href="#ArialMT-20"/>
      <use x="361.376953125" xlink:href="#ArialMT-75"/>
      <use x="416.9921875" xlink:href="#ArialMT-73"/>
      <use x="466.9921875" xlink:href="#ArialMT-65"/>
      <use x="522.607421875" xlink:href="#ArialMT-20"/>
      <use x="550.390625" xlink:href="#ArialMT-48"/>
      <use x="622.607421875" xlink:href="#ArialMT-61"/>
      <use x="678.22265625" xlink:href="#ArialMT-78"/>
      <use x="728.22265625" xlink:href="#ArialMT-65"/>
      <use x="783.837890625" xlink:href="#ArialMT-20"/>
      <use x="811.62109375" xlink:href="#ArialMT-62"/>
      <use x="867.236328125" xlink:href="#ArialMT-75"/>
      <use x="922.8515625" xlink:href="#ArialMT-74"/>
      <use x="950.634765625" xlink:href="#ArialMT-20"/>
      <use x="978.41796875" xlink:href="#ArialMT-49"/>
      <use x="1006.201171875" xlink:href="#ArialMT-27"/>
      <use x="1025.29296875" xlink:href="#ArialMT-6d"/>
      <use x="1108.59375" xlink:href="#ArialMT-20"/>
      <use x="1136.376953125" xlink:href="#ArialMT-69"/>
      <use x="1158.59375" xlink:href="#ArialMT-6e"/>
      <use x="1214.208984375" xlink:href="#ArialMT-74"/>
      <use x="1241.9921875" xlink:href="#ArialMT-65"/>
      <use x="1297.607421875" xlink:href="#ArialMT-72"/>
      <use x="1330.908203125" xlink:href="#ArialMT-65"/>
      <use x="1386.5234375" xlink:href="#ArialMT-73"/>
      <use x="1436.5234375" xlink:href="#ArialMT-74"/>
      <use x="1464.306640625" xlink:href="#ArialMT-65"/>
      <use x="1519.921875" xlink:href="#ArialMT-64"/>
      <use x="1575.537109375" xlink:href="#ArialMT-20"/>
      <use x="1603.3203125" xlink:href="#ArialMT-69"/>
      <use x="1625.537109375" xlink:href="#ArialMT-6e"/>
      <use x="1681.15234375" xlink:href="#ArialMT-20"/>
      <use x="1708.935546875" xlink:href="#ArialMT-75"/>
      <use x="1764.55078125" xlink:href="#ArialMT-73"/>
      <use x="1814.55078125" xlink:href="#ArialMT-69"/>
      <use x="1836.767578125" xlink:href="#ArialMT-6e"/>
      <use x="1892.3828125" xlink:href="#ArialMT-67"/>
      <use x="1947.998046875" xlink:href="#ArialMT-20"/>
      <use x="1975.78125" xlink:href="#ArialMT-69"/>
      <use x="1997.998046875" xlink:href="#ArialMT-74"/>
      <use x="2025.78125" xlink:href="#ArialMT-2e"/>
     </g>
    </g>
   </g>
  </g>
 </g>
 <defs>
  <clipPath id="pf4da756582">
   <rect height="292.8475" width="437.555" x="117.0475" y="60.1503125"/>
  </clipPath>
 </defs>
</svg>
