<?xml version="1.0" encoding="utf-8" standalone="no"?>
<!DOCTYPE svg PUBLIC "-//W3C//DTD SVG 1.1//EN"
  "http://www.w3.org/Graphics/SVG/1.1/DTD/svg11.dtd">
<!-- Created with matplotlib (http://matplotlib.org/) -->
<svg height="396pt" version="1.1" viewBox="0 0 576 396" width="576pt" xmlns="http://www.w3.org/2000/svg" xmlns:xlink="http://www.w3.org/1999/xlink">
 <defs>
  <style type="text/css">
*{stroke-linecap:butt;stroke-linejoin:round;stroke-miterlimit:100000;}
  </style>
 </defs>
 <g id="figure_1">
  <g id="patch_1">
   <path d="M 0 396 
L 576 396 
L 576 0 
L 0 0 
z
" style="fill:#ffffff;"/>
  </g>
  <g id="axes_1">
   <g id="patch_2">
    <path d="M 195.91 352.997813 
L 554.6025 352.997813 
L 554.6025 60.319062 
L 195.91 60.319062 
z
" style="fill:#eaeaf2;"/>
   </g>
   <g id="matplotlib.axis_1">
    <g id="xtick_1">
     <g id="line2d_1">
      <path clip-path="url(#pba8a7ac4ef)" d="M 195.91 352.997813 
L 195.91 60.319062 
" style="fill:none;stroke:#ffffff;stroke-linecap:round;"/>
     </g>
     <g id="line2d_2">
      <defs>
       <path d="M 0 0 
L 0 0 
" id="m951d76bbff" style="stroke:#262626;"/>
      </defs>
      <g>
       <use style="fill:#262626;stroke:#262626;" x="195.91" xlink:href="#m951d76bbff" y="352.9978125"/>
      </g>
     </g>
     <g id="line2d_3">
      <g>
       <use style="fill:#262626;stroke:#262626;" x="195.91" xlink:href="#m951d76bbff" y="60.3190625"/>
      </g>
     </g>
     <g id="text_1">
      <!-- 0 -->
      <defs>
       <path d="M 4.15625 35.296875 
Q 4.15625 48 6.765625 55.734375 
Q 9.375 63.484375 14.515625 67.671875 
Q 19.671875 71.875 27.484375 71.875 
Q 33.25 71.875 37.59375 69.546875 
Q 41.9375 67.234375 44.765625 62.859375 
Q 47.609375 58.5 49.21875 52.21875 
Q 50.828125 45.953125 50.828125 35.296875 
Q 50.828125 22.703125 48.234375 14.96875 
Q 45.65625 7.234375 40.5 3 
Q 35.359375 -1.21875 27.484375 -1.21875 
Q 17.140625 -1.21875 11.234375 6.203125 
Q 4.15625 15.140625 4.15625 35.296875 
M 13.1875 35.296875 
Q 13.1875 17.671875 17.3125 11.828125 
Q 21.4375 6 27.484375 6 
Q 33.546875 6 37.671875 11.859375 
Q 41.796875 17.71875 41.796875 35.296875 
Q 41.796875 52.984375 37.671875 58.78125 
Q 33.546875 64.59375 27.390625 64.59375 
Q 21.34375 64.59375 17.71875 59.46875 
Q 13.1875 52.9375 13.1875 35.296875 
" id="ArialMT-30"/>
      </defs>
      <g style="fill:#262626;" transform="translate(193.12953125 367.155625)scale(0.1 -0.1)">
       <use xlink:href="#ArialMT-30"/>
      </g>
     </g>
    </g>
    <g id="xtick_2">
     <g id="line2d_4">
      <path clip-path="url(#pba8a7ac4ef)" d="M 267.6485 352.997813 
L 267.6485 60.319062 
" style="fill:none;stroke:#ffffff;stroke-linecap:round;"/>
     </g>
     <g id="line2d_5">
      <g>
       <use style="fill:#262626;stroke:#262626;" x="267.6485" xlink:href="#m951d76bbff" y="352.9978125"/>
      </g>
     </g>
     <g id="line2d_6">
      <g>
       <use style="fill:#262626;stroke:#262626;" x="267.6485" xlink:href="#m951d76bbff" y="60.3190625"/>
      </g>
     </g>
     <g id="text_2">
      <!-- 20 -->
      <defs>
       <path d="M 50.34375 8.453125 
L 50.34375 0 
L 3.03125 0 
Q 2.9375 3.171875 4.046875 6.109375 
Q 5.859375 10.9375 9.828125 15.625 
Q 13.8125 20.3125 21.34375 26.46875 
Q 33.015625 36.03125 37.109375 41.625 
Q 41.21875 47.21875 41.21875 52.203125 
Q 41.21875 57.421875 37.46875 61 
Q 33.734375 64.59375 27.734375 64.59375 
Q 21.390625 64.59375 17.578125 60.78125 
Q 13.765625 56.984375 13.71875 50.25 
L 4.6875 51.171875 
Q 5.609375 61.28125 11.65625 66.578125 
Q 17.71875 71.875 27.9375 71.875 
Q 38.234375 71.875 44.234375 66.15625 
Q 50.25 60.453125 50.25 52 
Q 50.25 47.703125 48.484375 43.546875 
Q 46.734375 39.40625 42.65625 34.8125 
Q 38.578125 30.21875 29.109375 22.21875 
Q 21.1875 15.578125 18.9375 13.203125 
Q 16.703125 10.84375 15.234375 8.453125 
z
" id="ArialMT-32"/>
      </defs>
      <g style="fill:#262626;" transform="translate(262.0875625 367.155625)scale(0.1 -0.1)">
       <use xlink:href="#ArialMT-32"/>
       <use x="55.615234375" xlink:href="#ArialMT-30"/>
      </g>
     </g>
    </g>
    <g id="xtick_3">
     <g id="line2d_7">
      <path clip-path="url(#pba8a7ac4ef)" d="M 339.387 352.997813 
L 339.387 60.319062 
" style="fill:none;stroke:#ffffff;stroke-linecap:round;"/>
     </g>
     <g id="line2d_8">
      <g>
       <use style="fill:#262626;stroke:#262626;" x="339.387" xlink:href="#m951d76bbff" y="352.9978125"/>
      </g>
     </g>
     <g id="line2d_9">
      <g>
       <use style="fill:#262626;stroke:#262626;" x="339.387" xlink:href="#m951d76bbff" y="60.3190625"/>
      </g>
     </g>
     <g id="text_3">
      <!-- 40 -->
      <defs>
       <path d="M 32.328125 0 
L 32.328125 17.140625 
L 1.265625 17.140625 
L 1.265625 25.203125 
L 33.9375 71.578125 
L 41.109375 71.578125 
L 41.109375 25.203125 
L 50.78125 25.203125 
L 50.78125 17.140625 
L 41.109375 17.140625 
L 41.109375 0 
z
M 32.328125 25.203125 
L 32.328125 57.46875 
L 9.90625 25.203125 
z
" id="ArialMT-34"/>
      </defs>
      <g style="fill:#262626;" transform="translate(333.8260625 367.155625)scale(0.1 -0.1)">
       <use xlink:href="#ArialMT-34"/>
       <use x="55.615234375" xlink:href="#ArialMT-30"/>
      </g>
     </g>
    </g>
    <g id="xtick_4">
     <g id="line2d_10">
      <path clip-path="url(#pba8a7ac4ef)" d="M 411.1255 352.997813 
L 411.1255 60.319062 
" style="fill:none;stroke:#ffffff;stroke-linecap:round;"/>
     </g>
     <g id="line2d_11">
      <g>
       <use style="fill:#262626;stroke:#262626;" x="411.1255" xlink:href="#m951d76bbff" y="352.9978125"/>
      </g>
     </g>
     <g id="line2d_12">
      <g>
       <use style="fill:#262626;stroke:#262626;" x="411.1255" xlink:href="#m951d76bbff" y="60.3190625"/>
      </g>
     </g>
     <g id="text_4">
      <!-- 60 -->
      <defs>
       <path d="M 49.75 54.046875 
L 41.015625 53.375 
Q 39.84375 58.546875 37.703125 60.890625 
Q 34.125 64.65625 28.90625 64.65625 
Q 24.703125 64.65625 21.53125 62.3125 
Q 17.390625 59.28125 14.984375 53.46875 
Q 12.59375 47.65625 12.5 36.921875 
Q 15.671875 41.75 20.265625 44.09375 
Q 24.859375 46.4375 29.890625 46.4375 
Q 38.671875 46.4375 44.84375 39.96875 
Q 51.03125 33.5 51.03125 23.25 
Q 51.03125 16.5 48.125 10.71875 
Q 45.21875 4.9375 40.140625 1.859375 
Q 35.0625 -1.21875 28.609375 -1.21875 
Q 17.625 -1.21875 10.6875 6.859375 
Q 3.765625 14.9375 3.765625 33.5 
Q 3.765625 54.25 11.421875 63.671875 
Q 18.109375 71.875 29.4375 71.875 
Q 37.890625 71.875 43.28125 67.140625 
Q 48.6875 62.40625 49.75 54.046875 
M 13.875 23.1875 
Q 13.875 18.65625 15.796875 14.5 
Q 17.71875 10.359375 21.1875 8.171875 
Q 24.65625 6 28.46875 6 
Q 34.03125 6 38.03125 10.484375 
Q 42.046875 14.984375 42.046875 22.703125 
Q 42.046875 30.125 38.078125 34.390625 
Q 34.125 38.671875 28.125 38.671875 
Q 22.171875 38.671875 18.015625 34.390625 
Q 13.875 30.125 13.875 23.1875 
" id="ArialMT-36"/>
      </defs>
      <g style="fill:#262626;" transform="translate(405.5645625 367.155625)scale(0.1 -0.1)">
       <use xlink:href="#ArialMT-36"/>
       <use x="55.615234375" xlink:href="#ArialMT-30"/>
      </g>
     </g>
    </g>
    <g id="xtick_5">
     <g id="line2d_13">
      <path clip-path="url(#pba8a7ac4ef)" d="M 482.864 352.997813 
L 482.864 60.319062 
" style="fill:none;stroke:#ffffff;stroke-linecap:round;"/>
     </g>
     <g id="line2d_14">
      <g>
       <use style="fill:#262626;stroke:#262626;" x="482.864" xlink:href="#m951d76bbff" y="352.9978125"/>
      </g>
     </g>
     <g id="line2d_15">
      <g>
       <use style="fill:#262626;stroke:#262626;" x="482.864" xlink:href="#m951d76bbff" y="60.3190625"/>
      </g>
     </g>
     <g id="text_5">
      <!-- 80 -->
      <defs>
       <path d="M 17.671875 38.8125 
Q 12.203125 40.828125 9.5625 44.53125 
Q 6.9375 48.25 6.9375 53.421875 
Q 6.9375 61.234375 12.546875 66.546875 
Q 18.171875 71.875 27.484375 71.875 
Q 36.859375 71.875 42.578125 66.421875 
Q 48.296875 60.984375 48.296875 53.171875 
Q 48.296875 48.1875 45.671875 44.5 
Q 43.0625 40.828125 37.75 38.8125 
Q 44.34375 36.671875 47.78125 31.875 
Q 51.21875 27.09375 51.21875 20.453125 
Q 51.21875 11.28125 44.71875 5.03125 
Q 38.234375 -1.21875 27.640625 -1.21875 
Q 17.046875 -1.21875 10.546875 5.046875 
Q 4.046875 11.328125 4.046875 20.703125 
Q 4.046875 27.6875 7.59375 32.390625 
Q 11.140625 37.109375 17.671875 38.8125 
M 15.921875 53.71875 
Q 15.921875 48.640625 19.1875 45.40625 
Q 22.46875 42.1875 27.6875 42.1875 
Q 32.765625 42.1875 36.015625 45.375 
Q 39.265625 48.578125 39.265625 53.21875 
Q 39.265625 58.0625 35.90625 61.359375 
Q 32.5625 64.65625 27.59375 64.65625 
Q 22.5625 64.65625 19.234375 61.421875 
Q 15.921875 58.203125 15.921875 53.71875 
M 13.09375 20.65625 
Q 13.09375 16.890625 14.875 13.375 
Q 16.65625 9.859375 20.171875 7.921875 
Q 23.6875 6 27.734375 6 
Q 34.03125 6 38.125 10.046875 
Q 42.234375 14.109375 42.234375 20.359375 
Q 42.234375 26.703125 38.015625 30.859375 
Q 33.796875 35.015625 27.4375 35.015625 
Q 21.234375 35.015625 17.15625 30.90625 
Q 13.09375 26.8125 13.09375 20.65625 
" id="ArialMT-38"/>
      </defs>
      <g style="fill:#262626;" transform="translate(477.3030625 367.155625)scale(0.1 -0.1)">
       <use xlink:href="#ArialMT-38"/>
       <use x="55.615234375" xlink:href="#ArialMT-30"/>
      </g>
     </g>
    </g>
    <g id="xtick_6">
     <g id="line2d_16">
      <path clip-path="url(#pba8a7ac4ef)" d="M 554.6025 352.997813 
L 554.6025 60.319062 
" style="fill:none;stroke:#ffffff;stroke-linecap:round;"/>
     </g>
     <g id="line2d_17">
      <g>
       <use style="fill:#262626;stroke:#262626;" x="554.6025" xlink:href="#m951d76bbff" y="352.9978125"/>
      </g>
     </g>
     <g id="line2d_18">
      <g>
       <use style="fill:#262626;stroke:#262626;" x="554.6025" xlink:href="#m951d76bbff" y="60.3190625"/>
      </g>
     </g>
     <g id="text_6">
      <!-- 100 -->
      <defs>
       <path d="M 37.25 0 
L 28.46875 0 
L 28.46875 56 
Q 25.296875 52.984375 20.140625 49.953125 
Q 14.984375 46.921875 10.890625 45.40625 
L 10.890625 53.90625 
Q 18.265625 57.375 23.78125 62.296875 
Q 29.296875 67.234375 31.59375 71.875 
L 37.25 71.875 
z
" id="ArialMT-31"/>
      </defs>
      <g style="fill:#262626;" transform="translate(546.26109375 367.155625)scale(0.1 -0.1)">
       <use xlink:href="#ArialMT-31"/>
       <use x="55.615234375" xlink:href="#ArialMT-30"/>
       <use x="111.23046875" xlink:href="#ArialMT-30"/>
      </g>
     </g>
    </g>
    <g id="text_7">
     <!-- Percentage of respondents -->
     <defs>
      <path d="M 3.328125 25.921875 
Q 3.328125 40.328125 11.328125 47.265625 
Q 18.015625 53.03125 27.640625 53.03125 
Q 38.328125 53.03125 45.109375 46.015625 
Q 51.90625 39.015625 51.90625 26.65625 
Q 51.90625 16.65625 48.90625 10.90625 
Q 45.90625 5.171875 40.15625 2 
Q 34.421875 -1.171875 27.640625 -1.171875 
Q 16.75 -1.171875 10.03125 5.8125 
Q 3.328125 12.796875 3.328125 25.921875 
M 12.359375 25.921875 
Q 12.359375 15.96875 16.703125 11.015625 
Q 21.046875 6.0625 27.640625 6.0625 
Q 34.1875 6.0625 38.53125 11.03125 
Q 42.875 16.015625 42.875 26.21875 
Q 42.875 35.84375 38.5 40.796875 
Q 34.125 45.75 27.640625 45.75 
Q 21.046875 45.75 16.703125 40.8125 
Q 12.359375 35.890625 12.359375 25.921875 
" id="ArialMT-6f"/>
      <path d="M 6.59375 -19.875 
L 6.59375 51.859375 
L 14.59375 51.859375 
L 14.59375 45.125 
Q 17.4375 49.078125 21 51.046875 
Q 24.5625 53.03125 29.640625 53.03125 
Q 36.28125 53.03125 41.359375 49.609375 
Q 46.4375 46.1875 49.015625 39.953125 
Q 51.609375 33.734375 51.609375 26.3125 
Q 51.609375 18.359375 48.75 11.984375 
Q 45.90625 5.609375 40.453125 2.21875 
Q 35.015625 -1.171875 29 -1.171875 
Q 24.609375 -1.171875 21.109375 0.6875 
Q 17.625 2.546875 15.375 5.375 
L 15.375 -19.875 
z
M 14.546875 25.640625 
Q 14.546875 15.625 18.59375 10.84375 
Q 22.65625 6.0625 28.421875 6.0625 
Q 34.28125 6.0625 38.453125 11.015625 
Q 42.625 15.96875 42.625 26.375 
Q 42.625 36.28125 38.546875 41.203125 
Q 34.46875 46.140625 28.8125 46.140625 
Q 23.1875 46.140625 18.859375 40.890625 
Q 14.546875 35.640625 14.546875 25.640625 
" id="ArialMT-70"/>
      <path d="M 8.6875 0 
L 8.6875 45.015625 
L 0.921875 45.015625 
L 0.921875 51.859375 
L 8.6875 51.859375 
L 8.6875 57.375 
Q 8.6875 62.59375 9.625 65.140625 
Q 10.890625 68.5625 14.078125 70.671875 
Q 17.28125 72.796875 23.046875 72.796875 
Q 26.765625 72.796875 31.25 71.921875 
L 29.9375 64.265625 
Q 27.203125 64.75 24.75 64.75 
Q 20.75 64.75 19.09375 63.03125 
Q 17.4375 61.328125 17.4375 56.640625 
L 17.4375 51.859375 
L 27.546875 51.859375 
L 27.546875 45.015625 
L 17.4375 45.015625 
L 17.4375 0 
z
" id="ArialMT-66"/>
      <path d="M 7.71875 0 
L 7.71875 71.578125 
L 34.71875 71.578125 
Q 41.84375 71.578125 45.609375 70.90625 
Q 50.875 70.015625 54.4375 67.546875 
Q 58.015625 65.09375 60.1875 60.640625 
Q 62.359375 56.203125 62.359375 50.875 
Q 62.359375 41.75 56.546875 35.421875 
Q 50.734375 29.109375 35.546875 29.109375 
L 17.1875 29.109375 
L 17.1875 0 
z
M 17.1875 37.546875 
L 35.6875 37.546875 
Q 44.875 37.546875 48.734375 40.96875 
Q 52.59375 44.390625 52.59375 50.59375 
Q 52.59375 55.078125 50.3125 58.265625 
Q 48.046875 61.46875 44.34375 62.5 
Q 41.9375 63.140625 35.5 63.140625 
L 17.1875 63.140625 
z
" id="ArialMT-50"/>
      <path d="M 40.234375 0 
L 40.234375 6.546875 
Q 35.296875 -1.171875 25.734375 -1.171875 
Q 19.53125 -1.171875 14.328125 2.25 
Q 9.125 5.671875 6.265625 11.796875 
Q 3.421875 17.921875 3.421875 25.875 
Q 3.421875 33.640625 6 39.96875 
Q 8.59375 46.296875 13.765625 49.65625 
Q 18.953125 53.03125 25.34375 53.03125 
Q 30.03125 53.03125 33.6875 51.046875 
Q 37.359375 49.078125 39.65625 45.90625 
L 39.65625 71.578125 
L 48.390625 71.578125 
L 48.390625 0 
z
M 12.453125 25.875 
Q 12.453125 15.921875 16.640625 10.984375 
Q 20.84375 6.0625 26.5625 6.0625 
Q 32.328125 6.0625 36.34375 10.765625 
Q 40.375 15.484375 40.375 25.140625 
Q 40.375 35.796875 36.265625 40.765625 
Q 32.171875 45.75 26.171875 45.75 
Q 20.3125 45.75 16.375 40.96875 
Q 12.453125 36.1875 12.453125 25.875 
" id="ArialMT-64"/>
      <path d="M 42.09375 16.703125 
L 51.171875 15.578125 
Q 49.03125 7.625 43.21875 3.21875 
Q 37.40625 -1.171875 28.375 -1.171875 
Q 17 -1.171875 10.328125 5.828125 
Q 3.65625 12.84375 3.65625 25.484375 
Q 3.65625 38.578125 10.390625 45.796875 
Q 17.140625 53.03125 27.875 53.03125 
Q 38.28125 53.03125 44.875 45.953125 
Q 51.46875 38.875 51.46875 26.03125 
Q 51.46875 25.25 51.421875 23.6875 
L 12.75 23.6875 
Q 13.234375 15.140625 17.578125 10.59375 
Q 21.921875 6.0625 28.421875 6.0625 
Q 33.25 6.0625 36.671875 8.59375 
Q 40.09375 11.140625 42.09375 16.703125 
M 13.234375 30.90625 
L 42.1875 30.90625 
Q 41.609375 37.453125 38.875 40.71875 
Q 34.671875 45.796875 27.984375 45.796875 
Q 21.921875 45.796875 17.796875 41.75 
Q 13.671875 37.703125 13.234375 30.90625 
" id="ArialMT-65"/>
      <path d="M 6.59375 0 
L 6.59375 51.859375 
L 14.5 51.859375 
L 14.5 44.484375 
Q 20.21875 53.03125 31 53.03125 
Q 35.6875 53.03125 39.625 51.34375 
Q 43.5625 49.65625 45.515625 46.921875 
Q 47.46875 44.1875 48.25 40.4375 
Q 48.734375 37.984375 48.734375 31.890625 
L 48.734375 0 
L 39.9375 0 
L 39.9375 31.546875 
Q 39.9375 36.921875 38.90625 39.578125 
Q 37.890625 42.234375 35.28125 43.8125 
Q 32.671875 45.40625 29.15625 45.40625 
Q 23.53125 45.40625 19.453125 41.84375 
Q 15.375 38.28125 15.375 28.328125 
L 15.375 0 
z
" id="ArialMT-6e"/>
      <path d="M 3.078125 15.484375 
L 11.765625 16.84375 
Q 12.5 11.625 15.84375 8.84375 
Q 19.1875 6.0625 25.203125 6.0625 
Q 31.25 6.0625 34.171875 8.515625 
Q 37.109375 10.984375 37.109375 14.3125 
Q 37.109375 17.28125 34.515625 19 
Q 32.71875 20.171875 25.53125 21.96875 
Q 15.875 24.421875 12.140625 26.203125 
Q 8.40625 27.984375 6.46875 31.125 
Q 4.546875 34.28125 4.546875 38.09375 
Q 4.546875 41.546875 6.125 44.5 
Q 7.71875 47.46875 10.453125 49.421875 
Q 12.5 50.921875 16.03125 51.96875 
Q 19.578125 53.03125 23.640625 53.03125 
Q 29.734375 53.03125 34.34375 51.265625 
Q 38.96875 49.515625 41.15625 46.5 
Q 43.359375 43.5 44.1875 38.484375 
L 35.59375 37.3125 
Q 35.015625 41.3125 32.203125 43.546875 
Q 29.390625 45.796875 24.265625 45.796875 
Q 18.21875 45.796875 15.625 43.796875 
Q 13.03125 41.796875 13.03125 39.109375 
Q 13.03125 37.40625 14.109375 36.03125 
Q 15.1875 34.625 17.484375 33.6875 
Q 18.796875 33.203125 25.25 31.453125 
Q 34.578125 28.953125 38.25 27.359375 
Q 41.9375 25.78125 44.03125 22.75 
Q 46.140625 19.734375 46.140625 15.234375 
Q 46.140625 10.84375 43.578125 6.953125 
Q 41.015625 3.078125 36.171875 0.953125 
Q 31.34375 -1.171875 25.25 -1.171875 
Q 15.140625 -1.171875 9.84375 3.03125 
Q 4.546875 7.234375 3.078125 15.484375 
" id="ArialMT-73"/>
      <path id="ArialMT-20"/>
      <path d="M 4.984375 -4.296875 
L 13.53125 -5.5625 
Q 14.0625 -9.515625 16.5 -11.328125 
Q 19.78125 -13.765625 25.4375 -13.765625 
Q 31.546875 -13.765625 34.859375 -11.328125 
Q 38.1875 -8.890625 39.359375 -4.5 
Q 40.046875 -1.8125 39.984375 6.78125 
Q 34.234375 0 25.640625 0 
Q 14.9375 0 9.078125 7.71875 
Q 3.21875 15.4375 3.21875 26.21875 
Q 3.21875 33.640625 5.90625 39.90625 
Q 8.59375 46.1875 13.6875 49.609375 
Q 18.796875 53.03125 25.6875 53.03125 
Q 34.859375 53.03125 40.828125 45.609375 
L 40.828125 51.859375 
L 48.921875 51.859375 
L 48.921875 7.03125 
Q 48.921875 -5.078125 46.453125 -10.125 
Q 44 -15.1875 38.640625 -18.109375 
Q 33.296875 -21.046875 25.484375 -21.046875 
Q 16.21875 -21.046875 10.5 -16.875 
Q 4.78125 -12.703125 4.984375 -4.296875 
M 12.25 26.859375 
Q 12.25 16.65625 16.296875 11.96875 
Q 20.359375 7.28125 26.46875 7.28125 
Q 32.515625 7.28125 36.609375 11.9375 
Q 40.71875 16.609375 40.71875 26.5625 
Q 40.71875 36.078125 36.5 40.90625 
Q 32.28125 45.75 26.3125 45.75 
Q 20.453125 45.75 16.34375 40.984375 
Q 12.25 36.234375 12.25 26.859375 
" id="ArialMT-67"/>
      <path d="M 40.4375 19 
L 49.078125 17.875 
Q 47.65625 8.9375 41.8125 3.875 
Q 35.984375 -1.171875 27.484375 -1.171875 
Q 16.84375 -1.171875 10.375 5.78125 
Q 3.90625 12.75 3.90625 25.734375 
Q 3.90625 34.125 6.6875 40.421875 
Q 9.46875 46.734375 15.15625 49.875 
Q 20.84375 53.03125 27.546875 53.03125 
Q 35.984375 53.03125 41.359375 48.75 
Q 46.734375 44.484375 48.25 36.625 
L 39.703125 35.296875 
Q 38.484375 40.53125 35.375 43.15625 
Q 32.28125 45.796875 27.875 45.796875 
Q 21.234375 45.796875 17.078125 41.03125 
Q 12.9375 36.28125 12.9375 25.984375 
Q 12.9375 15.53125 16.9375 10.796875 
Q 20.953125 6.0625 27.390625 6.0625 
Q 32.5625 6.0625 36.03125 9.234375 
Q 39.5 12.40625 40.4375 19 
" id="ArialMT-63"/>
      <path d="M 25.78125 7.859375 
L 27.046875 0.09375 
Q 23.34375 -0.6875 20.40625 -0.6875 
Q 15.625 -0.6875 12.984375 0.828125 
Q 10.359375 2.34375 9.28125 4.8125 
Q 8.203125 7.28125 8.203125 15.1875 
L 8.203125 45.015625 
L 1.765625 45.015625 
L 1.765625 51.859375 
L 8.203125 51.859375 
L 8.203125 64.703125 
L 16.9375 69.96875 
L 16.9375 51.859375 
L 25.78125 51.859375 
L 25.78125 45.015625 
L 16.9375 45.015625 
L 16.9375 14.703125 
Q 16.9375 10.9375 17.40625 9.859375 
Q 17.875 8.796875 18.921875 8.15625 
Q 19.96875 7.515625 21.921875 7.515625 
Q 23.390625 7.515625 25.78125 7.859375 
" id="ArialMT-74"/>
      <path d="M 40.4375 6.390625 
Q 35.546875 2.25 31.03125 0.53125 
Q 26.515625 -1.171875 21.34375 -1.171875 
Q 12.796875 -1.171875 8.203125 3 
Q 3.609375 7.171875 3.609375 13.671875 
Q 3.609375 17.484375 5.34375 20.625 
Q 7.078125 23.78125 9.890625 25.6875 
Q 12.703125 27.59375 16.21875 28.5625 
Q 18.796875 29.25 24.03125 29.890625 
Q 34.671875 31.15625 39.703125 32.90625 
Q 39.75 34.71875 39.75 35.203125 
Q 39.75 40.578125 37.25 42.78125 
Q 33.890625 45.75 27.25 45.75 
Q 21.046875 45.75 18.09375 43.578125 
Q 15.140625 41.40625 13.71875 35.890625 
L 5.125 37.0625 
Q 6.296875 42.578125 8.984375 45.96875 
Q 11.671875 49.359375 16.75 51.1875 
Q 21.828125 53.03125 28.515625 53.03125 
Q 35.15625 53.03125 39.296875 51.46875 
Q 43.453125 49.90625 45.40625 47.53125 
Q 47.359375 45.171875 48.140625 41.546875 
Q 48.578125 39.3125 48.578125 33.453125 
L 48.578125 21.734375 
Q 48.578125 9.46875 49.140625 6.21875 
Q 49.703125 2.984375 51.375 0 
L 42.1875 0 
Q 40.828125 2.734375 40.4375 6.390625 
M 39.703125 26.03125 
Q 34.90625 24.078125 25.34375 22.703125 
Q 19.921875 21.921875 17.671875 20.9375 
Q 15.4375 19.96875 14.203125 18.09375 
Q 12.984375 16.21875 12.984375 13.921875 
Q 12.984375 10.40625 15.640625 8.0625 
Q 18.3125 5.71875 23.4375 5.71875 
Q 28.515625 5.71875 32.46875 7.9375 
Q 36.421875 10.15625 38.28125 14.015625 
Q 39.703125 17 39.703125 22.796875 
z
" id="ArialMT-61"/>
      <path d="M 6.5 0 
L 6.5 51.859375 
L 14.40625 51.859375 
L 14.40625 44 
Q 17.4375 49.515625 20 51.265625 
Q 22.5625 53.03125 25.640625 53.03125 
Q 30.078125 53.03125 34.671875 50.203125 
L 31.640625 42.046875 
Q 28.421875 43.953125 25.203125 43.953125 
Q 22.3125 43.953125 20.015625 42.21875 
Q 17.71875 40.484375 16.75 37.40625 
Q 15.28125 32.71875 15.28125 27.15625 
L 15.28125 0 
z
" id="ArialMT-72"/>
     </defs>
     <g style="fill:#262626;" transform="translate(309.215859375 382.15078125)scale(0.11 -0.11)">
      <use xlink:href="#ArialMT-50"/>
      <use x="66.69921875" xlink:href="#ArialMT-65"/>
      <use x="122.314453125" xlink:href="#ArialMT-72"/>
      <use x="155.615234375" xlink:href="#ArialMT-63"/>
      <use x="205.615234375" xlink:href="#ArialMT-65"/>
      <use x="261.23046875" xlink:href="#ArialMT-6e"/>
      <use x="316.845703125" xlink:href="#ArialMT-74"/>
      <use x="344.62890625" xlink:href="#ArialMT-61"/>
      <use x="400.244140625" xlink:href="#ArialMT-67"/>
      <use x="455.859375" xlink:href="#ArialMT-65"/>
      <use x="511.474609375" xlink:href="#ArialMT-20"/>
      <use x="539.2578125" xlink:href="#ArialMT-6f"/>
      <use x="594.873046875" xlink:href="#ArialMT-66"/>
      <use x="622.65625" xlink:href="#ArialMT-20"/>
      <use x="650.439453125" xlink:href="#ArialMT-72"/>
      <use x="683.740234375" xlink:href="#ArialMT-65"/>
      <use x="739.35546875" xlink:href="#ArialMT-73"/>
      <use x="789.35546875" xlink:href="#ArialMT-70"/>
      <use x="844.970703125" xlink:href="#ArialMT-6f"/>
      <use x="900.5859375" xlink:href="#ArialMT-6e"/>
      <use x="956.201171875" xlink:href="#ArialMT-64"/>
      <use x="1011.81640625" xlink:href="#ArialMT-65"/>
      <use x="1067.431640625" xlink:href="#ArialMT-6e"/>
      <use x="1123.046875" xlink:href="#ArialMT-74"/>
      <use x="1150.830078125" xlink:href="#ArialMT-73"/>
     </g>
    </g>
   </g>
   <g id="matplotlib.axis_2">
    <g id="ytick_1">
     <g id="line2d_19">
      <g>
       <use style="fill:#262626;stroke:#262626;" x="195.91" xlink:href="#m951d76bbff" y="89.5869375"/>
      </g>
     </g>
     <g id="line2d_20">
      <g>
       <use style="fill:#262626;stroke:#262626;" x="554.6025" xlink:href="#m951d76bbff" y="89.5869375"/>
      </g>
     </g>
     <g id="text_8">
      <!-- It is pre-installed (e.g. on a -->
      <defs>
       <path d="M 9.328125 0 
L 9.328125 71.578125 
L 18.796875 71.578125 
L 18.796875 0 
z
" id="ArialMT-49"/>
       <path d="M 23.390625 -21.046875 
Q 16.109375 -11.859375 11.078125 0.4375 
Q 6.0625 12.75 6.0625 25.921875 
Q 6.0625 37.546875 9.8125 48.1875 
Q 14.203125 60.546875 23.390625 72.796875 
L 29.6875 72.796875 
Q 23.78125 62.640625 21.875 58.296875 
Q 18.890625 51.5625 17.1875 44.234375 
Q 15.09375 35.109375 15.09375 25.875 
Q 15.09375 2.390625 29.6875 -21.046875 
z
" id="ArialMT-28"/>
       <path d="M 9.078125 0 
L 9.078125 10.015625 
L 19.09375 10.015625 
L 19.09375 0 
z
" id="ArialMT-2e"/>
       <path d="M 6.390625 0 
L 6.390625 71.578125 
L 15.1875 71.578125 
L 15.1875 0 
z
" id="ArialMT-6c"/>
       <path d="M 3.171875 21.484375 
L 3.171875 30.328125 
L 30.171875 30.328125 
L 30.171875 21.484375 
z
" id="ArialMT-2d"/>
       <path d="M 6.640625 61.46875 
L 6.640625 71.578125 
L 15.4375 71.578125 
L 15.4375 61.46875 
z
M 6.640625 0 
L 6.640625 51.859375 
L 15.4375 51.859375 
L 15.4375 0 
z
" id="ArialMT-69"/>
      </defs>
      <g style="fill:#262626;" transform="translate(71.081875 81.334125)scale(0.1 -0.1)">
       <use xlink:href="#ArialMT-49"/>
       <use x="27.783203125" xlink:href="#ArialMT-74"/>
       <use x="55.56640625" xlink:href="#ArialMT-20"/>
       <use x="83.349609375" xlink:href="#ArialMT-69"/>
       <use x="105.56640625" xlink:href="#ArialMT-73"/>
       <use x="155.56640625" xlink:href="#ArialMT-20"/>
       <use x="183.349609375" xlink:href="#ArialMT-70"/>
       <use x="238.96484375" xlink:href="#ArialMT-72"/>
       <use x="272.265625" xlink:href="#ArialMT-65"/>
       <use x="327.880859375" xlink:href="#ArialMT-2d"/>
       <use x="361.181640625" xlink:href="#ArialMT-69"/>
       <use x="383.3984375" xlink:href="#ArialMT-6e"/>
       <use x="439.013671875" xlink:href="#ArialMT-73"/>
       <use x="489.013671875" xlink:href="#ArialMT-74"/>
       <use x="516.796875" xlink:href="#ArialMT-61"/>
       <use x="572.412109375" xlink:href="#ArialMT-6c"/>
       <use x="594.62890625" xlink:href="#ArialMT-6c"/>
       <use x="616.845703125" xlink:href="#ArialMT-65"/>
       <use x="672.4609375" xlink:href="#ArialMT-64"/>
       <use x="728.076171875" xlink:href="#ArialMT-20"/>
       <use x="755.859375" xlink:href="#ArialMT-28"/>
       <use x="789.16015625" xlink:href="#ArialMT-65"/>
       <use x="844.775390625" xlink:href="#ArialMT-2e"/>
       <use x="872.55859375" xlink:href="#ArialMT-67"/>
       <use x="928.173828125" xlink:href="#ArialMT-2e"/>
       <use x="955.95703125" xlink:href="#ArialMT-20"/>
       <use x="983.740234375" xlink:href="#ArialMT-6f"/>
       <use x="1039.35546875" xlink:href="#ArialMT-6e"/>
       <use x="1094.970703125" xlink:href="#ArialMT-20"/>
       <use x="1122.75390625" xlink:href="#ArialMT-61"/>
      </g>
      <!-- customised VM / container image, or by -->
      <defs>
       <path d="M 6.59375 0 
L 6.59375 51.859375 
L 14.453125 51.859375 
L 14.453125 44.578125 
Q 16.890625 48.390625 20.9375 50.703125 
Q 25 53.03125 30.171875 53.03125 
Q 35.9375 53.03125 39.625 50.640625 
Q 43.3125 48.25 44.828125 43.953125 
Q 50.984375 53.03125 60.84375 53.03125 
Q 68.5625 53.03125 72.703125 48.75 
Q 76.859375 44.484375 76.859375 35.59375 
L 76.859375 0 
L 68.109375 0 
L 68.109375 32.671875 
Q 68.109375 37.9375 67.25 40.25 
Q 66.40625 42.578125 64.15625 43.984375 
Q 61.921875 45.40625 58.890625 45.40625 
Q 53.421875 45.40625 49.796875 41.765625 
Q 46.1875 38.140625 46.1875 30.125 
L 46.1875 0 
L 37.40625 0 
L 37.40625 33.6875 
Q 37.40625 39.546875 35.25 42.46875 
Q 33.109375 45.40625 28.21875 45.40625 
Q 24.515625 45.40625 21.359375 43.453125 
Q 18.21875 41.5 16.796875 37.734375 
Q 15.375 33.984375 15.375 26.90625 
L 15.375 0 
z
" id="ArialMT-6d"/>
       <path d="M 8.890625 0 
L 8.890625 10.015625 
L 18.890625 10.015625 
L 18.890625 0 
Q 18.890625 -5.515625 16.9375 -8.90625 
Q 14.984375 -12.3125 10.75 -14.15625 
L 8.296875 -10.40625 
Q 11.078125 -9.1875 12.390625 -6.8125 
Q 13.71875 -4.4375 13.875 0 
z
" id="ArialMT-2c"/>
       <path d="M 6.203125 -19.96875 
L 5.21875 -11.71875 
Q 8.109375 -12.5 10.25 -12.5 
Q 13.1875 -12.5 14.9375 -11.515625 
Q 16.703125 -10.546875 17.828125 -8.796875 
Q 18.65625 -7.46875 20.515625 -2.25 
Q 20.75 -1.515625 21.296875 -0.09375 
L 1.609375 51.859375 
L 11.078125 51.859375 
L 21.875 21.828125 
Q 23.96875 16.109375 25.640625 9.8125 
Q 27.15625 15.875 29.25 21.625 
L 40.328125 51.859375 
L 49.125 51.859375 
L 29.390625 -0.875 
Q 26.21875 -9.421875 24.46875 -12.640625 
Q 22.125 -17 19.09375 -19.015625 
Q 16.0625 -21.046875 11.859375 -21.046875 
Q 9.328125 -21.046875 6.203125 -19.96875 
" id="ArialMT-79"/>
       <path d="M 7.421875 0 
L 7.421875 71.578125 
L 21.6875 71.578125 
L 38.625 20.90625 
Q 40.96875 13.8125 42.046875 10.296875 
Q 43.265625 14.203125 45.84375 21.78125 
L 62.984375 71.578125 
L 75.734375 71.578125 
L 75.734375 0 
L 66.609375 0 
L 66.609375 59.90625 
L 45.796875 0 
L 37.25 0 
L 16.546875 60.9375 
L 16.546875 0 
z
" id="ArialMT-4d"/>
       <path d="M 40.578125 0 
L 40.578125 7.625 
Q 34.515625 -1.171875 24.125 -1.171875 
Q 19.53125 -1.171875 15.546875 0.578125 
Q 11.578125 2.34375 9.640625 5 
Q 7.71875 7.671875 6.9375 11.53125 
Q 6.390625 14.109375 6.390625 19.734375 
L 6.390625 51.859375 
L 15.1875 51.859375 
L 15.1875 23.09375 
Q 15.1875 16.21875 15.71875 13.8125 
Q 16.546875 10.359375 19.234375 8.375 
Q 21.921875 6.390625 25.875 6.390625 
Q 29.828125 6.390625 33.296875 8.421875 
Q 36.765625 10.453125 38.203125 13.9375 
Q 39.65625 17.4375 39.65625 24.078125 
L 39.65625 51.859375 
L 48.4375 51.859375 
L 48.4375 0 
z
" id="ArialMT-75"/>
       <path d="M 28.171875 0 
L 0.4375 71.578125 
L 10.6875 71.578125 
L 29.296875 19.578125 
Q 31.546875 13.328125 33.0625 7.859375 
Q 34.71875 13.71875 36.921875 19.578125 
L 56.25 71.578125 
L 65.921875 71.578125 
L 37.890625 0 
z
" id="ArialMT-56"/>
       <path d="M 0 -1.21875 
L 20.75 72.796875 
L 27.78125 72.796875 
L 7.078125 -1.21875 
z
" id="ArialMT-2f"/>
       <path d="M 14.703125 0 
L 6.546875 0 
L 6.546875 71.578125 
L 15.328125 71.578125 
L 15.328125 46.046875 
Q 20.90625 53.03125 29.546875 53.03125 
Q 34.328125 53.03125 38.59375 51.09375 
Q 42.875 49.171875 45.625 45.671875 
Q 48.390625 42.1875 49.953125 37.25 
Q 51.515625 32.328125 51.515625 26.703125 
Q 51.515625 13.375 44.921875 6.09375 
Q 38.328125 -1.171875 29.109375 -1.171875 
Q 19.921875 -1.171875 14.703125 6.5 
z
M 14.59375 26.3125 
Q 14.59375 17 17.140625 12.84375 
Q 21.296875 6.0625 28.375 6.0625 
Q 34.125 6.0625 38.328125 11.0625 
Q 42.53125 16.0625 42.53125 25.984375 
Q 42.53125 36.140625 38.5 40.96875 
Q 34.46875 45.796875 28.765625 45.796875 
Q 23 45.796875 18.796875 40.796875 
Q 14.59375 35.796875 14.59375 26.3125 
" id="ArialMT-62"/>
      </defs>
      <g style="fill:#262626;" transform="translate(13.29125 92.1744375)scale(0.1 -0.1)">
       <use xlink:href="#ArialMT-63"/>
       <use x="50.0" xlink:href="#ArialMT-75"/>
       <use x="105.615234375" xlink:href="#ArialMT-73"/>
       <use x="155.615234375" xlink:href="#ArialMT-74"/>
       <use x="183.3984375" xlink:href="#ArialMT-6f"/>
       <use x="239.013671875" xlink:href="#ArialMT-6d"/>
       <use x="322.314453125" xlink:href="#ArialMT-69"/>
       <use x="344.53125" xlink:href="#ArialMT-73"/>
       <use x="394.53125" xlink:href="#ArialMT-65"/>
       <use x="450.146484375" xlink:href="#ArialMT-64"/>
       <use x="505.76171875" xlink:href="#ArialMT-20"/>
       <use x="533.544921875" xlink:href="#ArialMT-56"/>
       <use x="600.244140625" xlink:href="#ArialMT-4d"/>
       <use x="683.544921875" xlink:href="#ArialMT-20"/>
       <use x="711.328125" xlink:href="#ArialMT-2f"/>
       <use x="739.111328125" xlink:href="#ArialMT-20"/>
       <use x="766.89453125" xlink:href="#ArialMT-63"/>
       <use x="816.89453125" xlink:href="#ArialMT-6f"/>
       <use x="872.509765625" xlink:href="#ArialMT-6e"/>
       <use x="928.125" xlink:href="#ArialMT-74"/>
       <use x="955.908203125" xlink:href="#ArialMT-61"/>
       <use x="1011.5234375" xlink:href="#ArialMT-69"/>
       <use x="1033.740234375" xlink:href="#ArialMT-6e"/>
       <use x="1089.35546875" xlink:href="#ArialMT-65"/>
       <use x="1144.970703125" xlink:href="#ArialMT-72"/>
       <use x="1178.271484375" xlink:href="#ArialMT-20"/>
       <use x="1206.0546875" xlink:href="#ArialMT-69"/>
       <use x="1228.271484375" xlink:href="#ArialMT-6d"/>
       <use x="1311.572265625" xlink:href="#ArialMT-61"/>
       <use x="1367.1875" xlink:href="#ArialMT-67"/>
       <use x="1422.802734375" xlink:href="#ArialMT-65"/>
       <use x="1478.41796875" xlink:href="#ArialMT-2c"/>
       <use x="1506.201171875" xlink:href="#ArialMT-20"/>
       <use x="1533.984375" xlink:href="#ArialMT-6f"/>
       <use x="1589.599609375" xlink:href="#ArialMT-72"/>
       <use x="1622.900390625" xlink:href="#ArialMT-20"/>
       <use x="1650.68359375" xlink:href="#ArialMT-62"/>
       <use x="1706.298828125" xlink:href="#ArialMT-79"/>
      </g>
      <!-- IT support of your company). -->
      <defs>
       <path d="M 12.359375 -21.046875 
L 6.0625 -21.046875 
Q 20.65625 2.390625 20.65625 25.875 
Q 20.65625 35.0625 18.5625 44.09375 
Q 16.890625 51.421875 13.921875 58.15625 
Q 12.015625 62.546875 6.0625 72.796875 
L 12.359375 72.796875 
Q 21.53125 60.546875 25.921875 48.1875 
Q 29.6875 37.546875 29.6875 25.921875 
Q 29.6875 12.75 24.625 0.4375 
Q 19.578125 -11.859375 12.359375 -21.046875 
" id="ArialMT-29"/>
       <path d="M 25.921875 0 
L 25.921875 63.140625 
L 2.34375 63.140625 
L 2.34375 71.578125 
L 59.078125 71.578125 
L 59.078125 63.140625 
L 35.40625 63.140625 
L 35.40625 0 
z
" id="ArialMT-54"/>
      </defs>
      <g style="fill:#262626;" transform="translate(61.0896875 103.01475)scale(0.1 -0.1)">
       <use xlink:href="#ArialMT-49"/>
       <use x="27.783203125" xlink:href="#ArialMT-54"/>
       <use x="88.8515625" xlink:href="#ArialMT-20"/>
       <use x="116.634765625" xlink:href="#ArialMT-73"/>
       <use x="166.634765625" xlink:href="#ArialMT-75"/>
       <use x="222.25" xlink:href="#ArialMT-70"/>
       <use x="277.865234375" xlink:href="#ArialMT-70"/>
       <use x="333.48046875" xlink:href="#ArialMT-6f"/>
       <use x="389.095703125" xlink:href="#ArialMT-72"/>
       <use x="422.396484375" xlink:href="#ArialMT-74"/>
       <use x="450.1796875" xlink:href="#ArialMT-20"/>
       <use x="477.962890625" xlink:href="#ArialMT-6f"/>
       <use x="533.578125" xlink:href="#ArialMT-66"/>
       <use x="561.361328125" xlink:href="#ArialMT-20"/>
       <use x="589.14453125" xlink:href="#ArialMT-79"/>
       <use x="639.14453125" xlink:href="#ArialMT-6f"/>
       <use x="694.759765625" xlink:href="#ArialMT-75"/>
       <use x="750.375" xlink:href="#ArialMT-72"/>
       <use x="783.67578125" xlink:href="#ArialMT-20"/>
       <use x="811.458984375" xlink:href="#ArialMT-63"/>
       <use x="861.458984375" xlink:href="#ArialMT-6f"/>
       <use x="917.07421875" xlink:href="#ArialMT-6d"/>
       <use x="1000.375" xlink:href="#ArialMT-70"/>
       <use x="1055.990234375" xlink:href="#ArialMT-61"/>
       <use x="1111.60546875" xlink:href="#ArialMT-6e"/>
       <use x="1167.220703125" xlink:href="#ArialMT-79"/>
       <use x="1217.220703125" xlink:href="#ArialMT-29"/>
       <use x="1250.521484375" xlink:href="#ArialMT-2e"/>
      </g>
     </g>
    </g>
    <g id="ytick_2">
     <g id="line2d_21">
      <g>
       <use style="fill:#262626;stroke:#262626;" x="195.91" xlink:href="#m951d76bbff" y="148.1226875"/>
      </g>
     </g>
     <g id="line2d_22">
      <g>
       <use style="fill:#262626;stroke:#262626;" x="554.6025" xlink:href="#m951d76bbff" y="148.1226875"/>
      </g>
     </g>
     <g id="text_9">
      <!-- Using the official installer. -->
      <defs>
       <path d="M 6.59375 0 
L 6.59375 71.578125 
L 15.375 71.578125 
L 15.375 45.90625 
Q 21.53125 53.03125 30.90625 53.03125 
Q 36.671875 53.03125 40.921875 50.75 
Q 45.171875 48.484375 47 44.484375 
Q 48.828125 40.484375 48.828125 32.859375 
L 48.828125 0 
L 40.046875 0 
L 40.046875 32.859375 
Q 40.046875 39.453125 37.1875 42.453125 
Q 34.328125 45.453125 29.109375 45.453125 
Q 25.203125 45.453125 21.75 43.421875 
Q 18.3125 41.40625 16.84375 37.9375 
Q 15.375 34.46875 15.375 28.375 
L 15.375 0 
z
" id="ArialMT-68"/>
       <path d="M 54.6875 71.578125 
L 64.15625 71.578125 
L 64.15625 30.21875 
Q 64.15625 19.4375 61.71875 13.078125 
Q 59.28125 6.734375 52.90625 2.75 
Q 46.53125 -1.21875 36.1875 -1.21875 
Q 26.125 -1.21875 19.71875 2.25 
Q 13.328125 5.71875 10.59375 12.28125 
Q 7.859375 18.84375 7.859375 30.21875 
L 7.859375 71.578125 
L 17.328125 71.578125 
L 17.328125 30.28125 
Q 17.328125 20.953125 19.0625 16.53125 
Q 20.796875 12.109375 25.015625 9.71875 
Q 29.25 7.328125 35.359375 7.328125 
Q 45.796875 7.328125 50.234375 12.0625 
Q 54.6875 16.796875 54.6875 30.28125 
z
" id="ArialMT-55"/>
      </defs>
      <g style="fill:#262626;" transform="translate(75.54125 150.7101875)scale(0.1 -0.1)">
       <use xlink:href="#ArialMT-55"/>
       <use x="72.216796875" xlink:href="#ArialMT-73"/>
       <use x="122.216796875" xlink:href="#ArialMT-69"/>
       <use x="144.43359375" xlink:href="#ArialMT-6e"/>
       <use x="200.048828125" xlink:href="#ArialMT-67"/>
       <use x="255.6640625" xlink:href="#ArialMT-20"/>
       <use x="283.447265625" xlink:href="#ArialMT-74"/>
       <use x="311.23046875" xlink:href="#ArialMT-68"/>
       <use x="366.845703125" xlink:href="#ArialMT-65"/>
       <use x="422.4609375" xlink:href="#ArialMT-20"/>
       <use x="450.244140625" xlink:href="#ArialMT-6f"/>
       <use x="505.859375" xlink:href="#ArialMT-66"/>
       <use x="533.626953125" xlink:href="#ArialMT-66"/>
       <use x="561.41015625" xlink:href="#ArialMT-69"/>
       <use x="583.626953125" xlink:href="#ArialMT-63"/>
       <use x="633.626953125" xlink:href="#ArialMT-69"/>
       <use x="655.84375" xlink:href="#ArialMT-61"/>
       <use x="711.458984375" xlink:href="#ArialMT-6c"/>
       <use x="733.67578125" xlink:href="#ArialMT-20"/>
       <use x="761.458984375" xlink:href="#ArialMT-69"/>
       <use x="783.67578125" xlink:href="#ArialMT-6e"/>
       <use x="839.291015625" xlink:href="#ArialMT-73"/>
       <use x="889.291015625" xlink:href="#ArialMT-74"/>
       <use x="917.07421875" xlink:href="#ArialMT-61"/>
       <use x="972.689453125" xlink:href="#ArialMT-6c"/>
       <use x="994.90625" xlink:href="#ArialMT-6c"/>
       <use x="1017.123046875" xlink:href="#ArialMT-65"/>
       <use x="1072.73828125" xlink:href="#ArialMT-72"/>
       <use x="1105.9609375" xlink:href="#ArialMT-2e"/>
      </g>
     </g>
    </g>
    <g id="ytick_3">
     <g id="line2d_23">
      <g>
       <use style="fill:#262626;stroke:#262626;" x="195.91" xlink:href="#m951d76bbff" y="206.6584375"/>
      </g>
     </g>
     <g id="line2d_24">
      <g>
       <use style="fill:#262626;stroke:#262626;" x="554.6025" xlink:href="#m951d76bbff" y="206.6584375"/>
      </g>
     </g>
     <g id="text_10">
      <!-- Using a package manager (apt-get, -->
      <defs>
       <path d="M 6.640625 0 
L 6.640625 71.578125 
L 15.4375 71.578125 
L 15.4375 30.765625 
L 36.234375 51.859375 
L 47.609375 51.859375 
L 27.78125 32.625 
L 49.609375 0 
L 38.765625 0 
L 21.625 26.515625 
L 15.4375 20.5625 
L 15.4375 0 
z
" id="ArialMT-6b"/>
      </defs>
      <g style="fill:#262626;" transform="translate(32.1646875 203.82578125)scale(0.1 -0.1)">
       <use xlink:href="#ArialMT-55"/>
       <use x="72.216796875" xlink:href="#ArialMT-73"/>
       <use x="122.216796875" xlink:href="#ArialMT-69"/>
       <use x="144.43359375" xlink:href="#ArialMT-6e"/>
       <use x="200.048828125" xlink:href="#ArialMT-67"/>
       <use x="255.6640625" xlink:href="#ArialMT-20"/>
       <use x="283.447265625" xlink:href="#ArialMT-61"/>
       <use x="339.0625" xlink:href="#ArialMT-20"/>
       <use x="366.845703125" xlink:href="#ArialMT-70"/>
       <use x="422.4609375" xlink:href="#ArialMT-61"/>
       <use x="478.076171875" xlink:href="#ArialMT-63"/>
       <use x="528.076171875" xlink:href="#ArialMT-6b"/>
       <use x="578.076171875" xlink:href="#ArialMT-61"/>
       <use x="633.69140625" xlink:href="#ArialMT-67"/>
       <use x="689.306640625" xlink:href="#ArialMT-65"/>
       <use x="744.921875" xlink:href="#ArialMT-20"/>
       <use x="772.705078125" xlink:href="#ArialMT-6d"/>
       <use x="856.005859375" xlink:href="#ArialMT-61"/>
       <use x="911.62109375" xlink:href="#ArialMT-6e"/>
       <use x="967.236328125" xlink:href="#ArialMT-61"/>
       <use x="1022.8515625" xlink:href="#ArialMT-67"/>
       <use x="1078.466796875" xlink:href="#ArialMT-65"/>
       <use x="1134.08203125" xlink:href="#ArialMT-72"/>
       <use x="1167.3828125" xlink:href="#ArialMT-20"/>
       <use x="1195.166015625" xlink:href="#ArialMT-28"/>
       <use x="1228.466796875" xlink:href="#ArialMT-61"/>
       <use x="1284.08203125" xlink:href="#ArialMT-70"/>
       <use x="1339.697265625" xlink:href="#ArialMT-74"/>
       <use x="1367.48046875" xlink:href="#ArialMT-2d"/>
       <use x="1400.78125" xlink:href="#ArialMT-67"/>
       <use x="1456.396484375" xlink:href="#ArialMT-65"/>
       <use x="1512.01171875" xlink:href="#ArialMT-74"/>
       <use x="1539.794921875" xlink:href="#ArialMT-2c"/>
      </g>
      <!-- homebrew, etc.). -->
      <defs>
       <path d="M 16.15625 0 
L 0.296875 51.859375 
L 9.375 51.859375 
L 17.625 21.921875 
L 20.703125 10.796875 
Q 20.90625 11.625 23.390625 21.484375 
L 31.640625 51.859375 
L 40.671875 51.859375 
L 48.4375 21.78125 
L 51.03125 11.859375 
L 54 21.875 
L 62.890625 51.859375 
L 71.4375 51.859375 
L 55.21875 0 
L 46.09375 0 
L 37.84375 31.0625 
L 35.84375 39.890625 
L 25.34375 0 
z
" id="ArialMT-77"/>
      </defs>
      <g style="fill:#262626;" transform="translate(114.450625 214.66609375)scale(0.1 -0.1)">
       <use xlink:href="#ArialMT-68"/>
       <use x="55.615234375" xlink:href="#ArialMT-6f"/>
       <use x="111.23046875" xlink:href="#ArialMT-6d"/>
       <use x="194.53125" xlink:href="#ArialMT-65"/>
       <use x="250.146484375" xlink:href="#ArialMT-62"/>
       <use x="305.76171875" xlink:href="#ArialMT-72"/>
       <use x="339.0625" xlink:href="#ArialMT-65"/>
       <use x="394.677734375" xlink:href="#ArialMT-77"/>
       <use x="466.81640625" xlink:href="#ArialMT-2c"/>
       <use x="494.599609375" xlink:href="#ArialMT-20"/>
       <use x="522.3828125" xlink:href="#ArialMT-65"/>
       <use x="577.998046875" xlink:href="#ArialMT-74"/>
       <use x="605.78125" xlink:href="#ArialMT-63"/>
       <use x="655.78125" xlink:href="#ArialMT-2e"/>
       <use x="683.564453125" xlink:href="#ArialMT-29"/>
       <use x="716.865234375" xlink:href="#ArialMT-2e"/>
      </g>
     </g>
    </g>
    <g id="ytick_4">
     <g id="line2d_25">
      <g>
       <use style="fill:#262626;stroke:#262626;" x="195.91" xlink:href="#m951d76bbff" y="265.1941875"/>
      </g>
     </g>
     <g id="line2d_26">
      <g>
       <use style="fill:#262626;stroke:#262626;" x="554.6025" xlink:href="#m951d76bbff" y="265.1941875"/>
      </g>
     </g>
     <g id="text_11">
      <!-- Building from source. -->
      <defs>
       <path d="M 7.328125 0 
L 7.328125 71.578125 
L 34.1875 71.578125 
Q 42.390625 71.578125 47.34375 69.40625 
Q 52.296875 67.234375 55.09375 62.71875 
Q 57.90625 58.203125 57.90625 53.265625 
Q 57.90625 48.6875 55.421875 44.625 
Q 52.9375 40.578125 47.90625 38.09375 
Q 54.390625 36.1875 57.875 31.59375 
Q 61.375 27 61.375 20.75 
Q 61.375 15.71875 59.25 11.390625 
Q 57.125 7.078125 54 4.734375 
Q 50.875 2.390625 46.15625 1.1875 
Q 41.453125 0 34.625 0 
z
M 16.796875 41.5 
L 32.28125 41.5 
Q 38.578125 41.5 41.3125 42.328125 
Q 44.921875 43.40625 46.75 45.890625 
Q 48.578125 48.390625 48.578125 52.15625 
Q 48.578125 55.71875 46.875 58.421875 
Q 45.171875 61.140625 41.984375 62.140625 
Q 38.8125 63.140625 31.109375 63.140625 
L 16.796875 63.140625 
z
M 16.796875 8.453125 
L 34.625 8.453125 
Q 39.203125 8.453125 41.0625 8.796875 
Q 44.34375 9.375 46.53125 10.734375 
Q 48.734375 12.109375 50.140625 14.71875 
Q 51.5625 17.328125 51.5625 20.75 
Q 51.5625 24.75 49.515625 27.703125 
Q 47.46875 30.671875 43.828125 31.859375 
Q 40.1875 33.0625 33.34375 33.0625 
L 16.796875 33.0625 
z
" id="ArialMT-42"/>
      </defs>
      <g style="fill:#262626;" transform="translate(94.985 267.7816875)scale(0.1 -0.1)">
       <use xlink:href="#ArialMT-42"/>
       <use x="66.69921875" xlink:href="#ArialMT-75"/>
       <use x="122.314453125" xlink:href="#ArialMT-69"/>
       <use x="144.53125" xlink:href="#ArialMT-6c"/>
       <use x="166.748046875" xlink:href="#ArialMT-64"/>
       <use x="222.36328125" xlink:href="#ArialMT-69"/>
       <use x="244.580078125" xlink:href="#ArialMT-6e"/>
       <use x="300.1953125" xlink:href="#ArialMT-67"/>
       <use x="355.810546875" xlink:href="#ArialMT-20"/>
       <use x="383.59375" xlink:href="#ArialMT-66"/>
       <use x="411.376953125" xlink:href="#ArialMT-72"/>
       <use x="444.677734375" xlink:href="#ArialMT-6f"/>
       <use x="500.29296875" xlink:href="#ArialMT-6d"/>
       <use x="583.59375" xlink:href="#ArialMT-20"/>
       <use x="611.376953125" xlink:href="#ArialMT-73"/>
       <use x="661.376953125" xlink:href="#ArialMT-6f"/>
       <use x="716.9921875" xlink:href="#ArialMT-75"/>
       <use x="772.607421875" xlink:href="#ArialMT-72"/>
       <use x="805.908203125" xlink:href="#ArialMT-63"/>
       <use x="855.908203125" xlink:href="#ArialMT-65"/>
       <use x="911.5234375" xlink:href="#ArialMT-2e"/>
      </g>
     </g>
    </g>
    <g id="ytick_5">
     <g id="line2d_27">
      <g>
       <use style="fill:#262626;stroke:#262626;" x="195.91" xlink:href="#m951d76bbff" y="323.7299375"/>
      </g>
     </g>
     <g id="line2d_28">
      <g>
       <use style="fill:#262626;stroke:#262626;" x="554.6025" xlink:href="#m951d76bbff" y="323.7299375"/>
      </g>
     </g>
     <g id="text_12">
      <!-- Others -->
      <defs>
       <path d="M 4.828125 34.859375 
Q 4.828125 52.6875 14.390625 62.765625 
Q 23.96875 72.859375 39.109375 72.859375 
Q 49.03125 72.859375 56.984375 68.109375 
Q 64.9375 63.375 69.109375 54.90625 
Q 73.296875 46.4375 73.296875 35.6875 
Q 73.296875 24.8125 68.890625 16.21875 
Q 64.5 7.625 56.4375 3.203125 
Q 48.390625 -1.21875 39.0625 -1.21875 
Q 28.953125 -1.21875 20.984375 3.65625 
Q 13.03125 8.546875 8.921875 16.984375 
Q 4.828125 25.4375 4.828125 34.859375 
M 14.59375 34.71875 
Q 14.59375 21.78125 21.546875 14.328125 
Q 28.515625 6.890625 39.015625 6.890625 
Q 49.703125 6.890625 56.609375 14.40625 
Q 63.53125 21.921875 63.53125 35.75 
Q 63.53125 44.484375 60.578125 51 
Q 57.625 57.515625 51.921875 61.109375 
Q 46.234375 64.703125 39.15625 64.703125 
Q 29.109375 64.703125 21.84375 57.78125 
Q 14.59375 50.875 14.59375 34.71875 
" id="ArialMT-4f"/>
      </defs>
      <g style="fill:#262626;" transform="translate(158.9021875 326.31509375)scale(0.1 -0.1)">
       <use xlink:href="#ArialMT-4f"/>
       <use x="77.783203125" xlink:href="#ArialMT-74"/>
       <use x="105.56640625" xlink:href="#ArialMT-68"/>
       <use x="161.181640625" xlink:href="#ArialMT-65"/>
       <use x="216.796875" xlink:href="#ArialMT-72"/>
       <use x="250.09765625" xlink:href="#ArialMT-73"/>
      </g>
     </g>
    </g>
   </g>
   <g id="patch_3">
    <path clip-path="url(#pba8a7ac4ef)" d="M 195.91 66.172637 
L 199.997664 66.172637 
L 199.997664 113.001237 
L 195.91 113.001237 
z
" style="fill:#e7d4cd;"/>
   </g>
   <g id="patch_4">
    <path clip-path="url(#pba8a7ac4ef)" d="M 195.91 124.708387 
L 453.432821 124.708387 
L 453.432821 171.536987 
L 195.91 171.536987 
z
" style="fill:#e7d4cd;"/>
   </g>
   <g id="patch_5">
    <path clip-path="url(#pba8a7ac4ef)" d="M 195.91 183.244137 
L 413.578098 183.244137 
L 413.578098 230.072738 
L 195.91 230.072738 
z
" style="fill:#e7d4cd;"/>
   </g>
   <g id="patch_6">
    <path clip-path="url(#pba8a7ac4ef)" d="M 195.91 241.779888 
L 238.83047 241.779888 
L 238.83047 288.608488 
L 195.91 288.608488 
z
" style="fill:#e7d4cd;"/>
   </g>
   <g id="patch_7">
    <path clip-path="url(#pba8a7ac4ef)" d="M 195.91 300.315637 
L 201.01958 300.315637 
L 201.01958 347.144238 
L 195.91 347.144238 
z
" style="fill:#e7d4cd;"/>
   </g>
   <g id="patch_8">
    <path clip-path="url(#pba8a7ac4ef)" d="M 195.91 66.172637 
L 199.997664 66.172637 
L 199.997664 113.001237 
L 195.91 113.001237 
z
" style="fill:#94a276;"/>
   </g>
   <g id="patch_9">
    <path clip-path="url(#pba8a7ac4ef)" d="M 195.91 124.708387 
L 423.797258 124.708387 
L 423.797258 171.536987 
L 195.91 171.536987 
z
" style="fill:#94a276;"/>
   </g>
   <g id="patch_10">
    <path clip-path="url(#pba8a7ac4ef)" d="M 195.91 183.244137 
L 389.052115 183.244137 
L 389.052115 230.072738 
L 195.91 230.072738 
z
" style="fill:#94a276;"/>
   </g>
   <g id="patch_11">
    <path clip-path="url(#pba8a7ac4ef)" d="M 195.91 241.779888 
L 235.764722 241.779888 
L 235.764722 288.608488 
L 195.91 288.608488 
z
" style="fill:#94a276;"/>
   </g>
   <g id="patch_12">
    <path clip-path="url(#pba8a7ac4ef)" d="M 195.91 300.315637 
L 201.01958 300.315637 
L 201.01958 347.144238 
L 195.91 347.144238 
z
" style="fill:#94a276;"/>
   </g>
   <g id="patch_13">
    <path clip-path="url(#pba8a7ac4ef)" d="M 195.91 66.172637 
L 199.997664 66.172637 
L 199.997664 113.001237 
L 195.91 113.001237 
z
" style="fill:#417157;"/>
   </g>
   <g id="patch_14">
    <path clip-path="url(#pba8a7ac4ef)" d="M 195.91 124.708387 
L 322.627578 124.708387 
L 322.627578 171.536987 
L 195.91 171.536987 
z
" style="fill:#417157;"/>
   </g>
   <g id="patch_15">
    <path clip-path="url(#pba8a7ac4ef)" d="M 195.91 183.244137 
L 300.145427 183.244137 
L 300.145427 230.072738 
L 195.91 230.072738 
z
" style="fill:#417157;"/>
   </g>
   <g id="patch_16">
    <path clip-path="url(#pba8a7ac4ef)" d="M 195.91 241.779888 
L 222.479815 241.779888 
L 222.479815 288.608488 
L 195.91 288.608488 
z
" style="fill:#417157;"/>
   </g>
   <g id="patch_17">
    <path clip-path="url(#pba8a7ac4ef)" d="M 195.91 300.315637 
L 197.953832 300.315637 
L 197.953832 347.144238 
L 195.91 347.144238 
z
" style="fill:#417157;"/>
   </g>
   <g id="patch_18">
    <path clip-path="url(#pba8a7ac4ef)" d="M 195.91 66.172637 
L 196.931916 66.172637 
L 196.931916 113.001237 
L 195.91 113.001237 
z
" style="fill:#1a2a35;"/>
   </g>
   <g id="patch_19">
    <path clip-path="url(#pba8a7ac4ef)" d="M 195.91 124.708387 
L 281.75094 124.708387 
L 281.75094 171.536987 
L 195.91 171.536987 
z
" style="fill:#1a2a35;"/>
   </g>
   <g id="patch_20">
    <path clip-path="url(#pba8a7ac4ef)" d="M 195.91 183.244137 
L 261.312621 183.244137 
L 261.312621 230.072738 
L 195.91 230.072738 
z
" style="fill:#1a2a35;"/>
   </g>
   <g id="patch_21">
    <path clip-path="url(#pba8a7ac4ef)" d="M 195.91 241.779888 
L 213.282571 241.779888 
L 213.282571 288.608488 
L 195.91 288.608488 
z
" style="fill:#1a2a35;"/>
   </g>
   <g id="patch_22">
    <path clip-path="url(#pba8a7ac4ef)" d="M 195.91 300.315637 
L 195.91 300.315637 
L 195.91 347.144238 
L 195.91 347.144238 
z
" style="fill:#1a2a35;"/>
   </g>
   <g id="line2d_29">
    <path clip-path="url(#pba8a7ac4ef)" style="fill:none;stroke:#424242;stroke-linecap:round;stroke-width:3.15;"/>
   </g>
   <g id="line2d_30">
    <path clip-path="url(#pba8a7ac4ef)" style="fill:none;stroke:#424242;stroke-linecap:round;stroke-width:3.15;"/>
   </g>
   <g id="line2d_31">
    <path clip-path="url(#pba8a7ac4ef)" style="fill:none;stroke:#424242;stroke-linecap:round;stroke-width:3.15;"/>
   </g>
   <g id="line2d_32">
    <path clip-path="url(#pba8a7ac4ef)" style="fill:none;stroke:#424242;stroke-linecap:round;stroke-width:3.15;"/>
   </g>
   <g id="line2d_33">
    <path clip-path="url(#pba8a7ac4ef)" style="fill:none;stroke:#424242;stroke-linecap:round;stroke-width:3.15;"/>
   </g>
   <g id="line2d_34">
    <path clip-path="url(#pba8a7ac4ef)" style="fill:none;stroke:#424242;stroke-linecap:round;stroke-width:3.15;"/>
   </g>
   <g id="line2d_35">
    <path clip-path="url(#pba8a7ac4ef)" style="fill:none;stroke:#424242;stroke-linecap:round;stroke-width:3.15;"/>
   </g>
   <g id="line2d_36">
    <path clip-path="url(#pba8a7ac4ef)" style="fill:none;stroke:#424242;stroke-linecap:round;stroke-width:3.15;"/>
   </g>
   <g id="line2d_37">
    <path clip-path="url(#pba8a7ac4ef)" style="fill:none;stroke:#424242;stroke-linecap:round;stroke-width:3.15;"/>
   </g>
   <g id="line2d_38">
    <path clip-path="url(#pba8a7ac4ef)" style="fill:none;stroke:#424242;stroke-linecap:round;stroke-width:3.15;"/>
   </g>
   <g id="line2d_39">
    <path clip-path="url(#pba8a7ac4ef)" style="fill:none;stroke:#424242;stroke-linecap:round;stroke-width:3.15;"/>
   </g>
   <g id="line2d_40">
    <path clip-path="url(#pba8a7ac4ef)" style="fill:none;stroke:#424242;stroke-linecap:round;stroke-width:3.15;"/>
   </g>
   <g id="line2d_41">
    <path clip-path="url(#pba8a7ac4ef)" style="fill:none;stroke:#424242;stroke-linecap:round;stroke-width:3.15;"/>
   </g>
   <g id="line2d_42">
    <path clip-path="url(#pba8a7ac4ef)" style="fill:none;stroke:#424242;stroke-linecap:round;stroke-width:3.15;"/>
   </g>
   <g id="line2d_43">
    <path clip-path="url(#pba8a7ac4ef)" style="fill:none;stroke:#424242;stroke-linecap:round;stroke-width:3.15;"/>
   </g>
   <g id="line2d_44">
    <path clip-path="url(#pba8a7ac4ef)" style="fill:none;stroke:#424242;stroke-linecap:round;stroke-width:3.15;"/>
   </g>
   <g id="line2d_45">
    <path clip-path="url(#pba8a7ac4ef)" style="fill:none;stroke:#424242;stroke-linecap:round;stroke-width:3.15;"/>
   </g>
   <g id="line2d_46">
    <path clip-path="url(#pba8a7ac4ef)" style="fill:none;stroke:#424242;stroke-linecap:round;stroke-width:3.15;"/>
   </g>
   <g id="line2d_47">
    <path clip-path="url(#pba8a7ac4ef)" style="fill:none;stroke:#424242;stroke-linecap:round;stroke-width:3.15;"/>
   </g>
   <g id="line2d_48">
    <path clip-path="url(#pba8a7ac4ef)" style="fill:none;stroke:#424242;stroke-linecap:round;stroke-width:3.15;"/>
   </g>
   <g id="patch_23">
    <path d="M 195.91 60.319062 
L 554.6025 60.319062 
" style="fill:none;"/>
   </g>
   <g id="patch_24">
    <path d="M 195.91 352.997813 
L 554.6025 352.997813 
" style="fill:none;"/>
   </g>
   <g id="patch_25">
    <path d="M 195.91 352.997813 
L 195.91 60.319062 
" style="fill:none;"/>
   </g>
   <g id="patch_26">
    <path d="M 554.6025 352.997813 
L 554.6025 60.319062 
" style="fill:none;"/>
   </g>
   <g id="text_13">
    <!-- Which is your preferred way to obtain -->
    <defs>
     <path d="M 20.21875 0 
L 1.21875 71.578125 
L 10.9375 71.578125 
L 21.828125 24.65625 
Q 23.578125 17.28125 24.859375 10.015625 
Q 27.59375 21.484375 28.078125 23.25 
L 41.703125 71.578125 
L 53.125 71.578125 
L 63.375 35.359375 
Q 67.234375 21.875 68.953125 10.015625 
Q 70.3125 16.796875 72.515625 25.59375 
L 83.734375 71.578125 
L 93.265625 71.578125 
L 73.640625 0 
L 64.5 0 
L 49.421875 54.546875 
Q 47.515625 61.375 47.171875 62.9375 
Q 46.046875 58.015625 45.0625 54.546875 
L 29.890625 0 
z
" id="ArialMT-57"/>
    </defs>
    <g style="fill:#262626;" transform="translate(256.41125 24.0989625)scale(0.144 -0.144)">
     <use xlink:href="#ArialMT-57"/>
     <use x="94.384765625" xlink:href="#ArialMT-68"/>
     <use x="150.0" xlink:href="#ArialMT-69"/>
     <use x="172.216796875" xlink:href="#ArialMT-63"/>
     <use x="222.216796875" xlink:href="#ArialMT-68"/>
     <use x="277.83203125" xlink:href="#ArialMT-20"/>
     <use x="305.615234375" xlink:href="#ArialMT-69"/>
     <use x="327.83203125" xlink:href="#ArialMT-73"/>
     <use x="377.83203125" xlink:href="#ArialMT-20"/>
     <use x="405.615234375" xlink:href="#ArialMT-79"/>
     <use x="455.615234375" xlink:href="#ArialMT-6f"/>
     <use x="511.23046875" xlink:href="#ArialMT-75"/>
     <use x="566.845703125" xlink:href="#ArialMT-72"/>
     <use x="600.146484375" xlink:href="#ArialMT-20"/>
     <use x="627.9296875" xlink:href="#ArialMT-70"/>
     <use x="683.544921875" xlink:href="#ArialMT-72"/>
     <use x="716.845703125" xlink:href="#ArialMT-65"/>
     <use x="772.4609375" xlink:href="#ArialMT-66"/>
     <use x="800.244140625" xlink:href="#ArialMT-65"/>
     <use x="855.859375" xlink:href="#ArialMT-72"/>
     <use x="889.16015625" xlink:href="#ArialMT-72"/>
     <use x="922.4609375" xlink:href="#ArialMT-65"/>
     <use x="978.076171875" xlink:href="#ArialMT-64"/>
     <use x="1033.69140625" xlink:href="#ArialMT-20"/>
     <use x="1061.474609375" xlink:href="#ArialMT-77"/>
     <use x="1133.69140625" xlink:href="#ArialMT-61"/>
     <use x="1189.306640625" xlink:href="#ArialMT-79"/>
     <use x="1239.306640625" xlink:href="#ArialMT-20"/>
     <use x="1267.08984375" xlink:href="#ArialMT-74"/>
     <use x="1294.873046875" xlink:href="#ArialMT-6f"/>
     <use x="1350.48828125" xlink:href="#ArialMT-20"/>
     <use x="1378.271484375" xlink:href="#ArialMT-6f"/>
     <use x="1433.88671875" xlink:href="#ArialMT-62"/>
     <use x="1489.501953125" xlink:href="#ArialMT-74"/>
     <use x="1517.28515625" xlink:href="#ArialMT-61"/>
     <use x="1572.900390625" xlink:href="#ArialMT-69"/>
     <use x="1595.1171875" xlink:href="#ArialMT-6e"/>
    </g>
    <!-- development software (not necessarily Haxe)? -->
    <defs>
     <path d="M 8.015625 0 
L 8.015625 71.578125 
L 17.484375 71.578125 
L 17.484375 42.1875 
L 54.6875 42.1875 
L 54.6875 71.578125 
L 64.15625 71.578125 
L 64.15625 0 
L 54.6875 0 
L 54.6875 33.734375 
L 17.484375 33.734375 
L 17.484375 0 
z
" id="ArialMT-48"/>
     <path d="M 23.046875 17.625 
Q 23 19.390625 23 20.265625 
Q 23 25.4375 24.46875 29.203125 
Q 25.53125 32.03125 27.9375 34.90625 
Q 29.6875 37.015625 34.25 41.03125 
Q 38.8125 45.0625 40.171875 47.453125 
Q 41.546875 49.859375 41.546875 52.6875 
Q 41.546875 57.8125 37.546875 61.6875 
Q 33.546875 65.578125 27.734375 65.578125 
Q 22.125 65.578125 18.359375 62.0625 
Q 14.59375 58.546875 13.421875 51.078125 
L 4.390625 52.15625 
Q 5.609375 62.15625 11.640625 67.46875 
Q 17.671875 72.796875 27.59375 72.796875 
Q 38.09375 72.796875 44.34375 67.078125 
Q 50.59375 61.375 50.59375 53.265625 
Q 50.59375 48.578125 48.390625 44.625 
Q 46.1875 40.671875 39.796875 35.015625 
Q 35.5 31.203125 34.171875 29.390625 
Q 32.859375 27.59375 32.21875 25.25 
Q 31.59375 22.90625 31.5 17.625 
z
M 22.515625 0 
L 22.515625 10.015625 
L 32.515625 10.015625 
L 32.515625 0 
z
" id="ArialMT-3f"/>
     <path d="M 21 0 
L 1.265625 51.859375 
L 10.546875 51.859375 
L 21.6875 20.796875 
Q 23.484375 15.765625 25 10.359375 
Q 26.171875 14.453125 28.265625 20.21875 
L 39.796875 51.859375 
L 48.828125 51.859375 
L 29.203125 0 
z
" id="ArialMT-76"/>
     <path d="M 0.734375 0 
L 19.671875 26.953125 
L 2.15625 51.859375 
L 13.140625 51.859375 
L 21.09375 39.703125 
Q 23.34375 36.234375 24.703125 33.890625 
Q 26.859375 37.109375 28.65625 39.59375 
L 37.40625 51.859375 
L 47.90625 51.859375 
L 29.984375 27.4375 
L 49.265625 0 
L 38.484375 0 
L 27.828125 16.109375 
L 25 20.453125 
L 11.375 0 
z
" id="ArialMT-78"/>
    </defs>
    <g style="fill:#262626;" transform="translate(227.195 39.7090125)scale(0.144 -0.144)">
     <use xlink:href="#ArialMT-64"/>
     <use x="55.615234375" xlink:href="#ArialMT-65"/>
     <use x="111.23046875" xlink:href="#ArialMT-76"/>
     <use x="161.23046875" xlink:href="#ArialMT-65"/>
     <use x="216.845703125" xlink:href="#ArialMT-6c"/>
     <use x="239.0625" xlink:href="#ArialMT-6f"/>
     <use x="294.677734375" xlink:href="#ArialMT-70"/>
     <use x="350.29296875" xlink:href="#ArialMT-6d"/>
     <use x="433.59375" xlink:href="#ArialMT-65"/>
     <use x="489.208984375" xlink:href="#ArialMT-6e"/>
     <use x="544.82421875" xlink:href="#ArialMT-74"/>
     <use x="572.607421875" xlink:href="#ArialMT-20"/>
     <use x="600.390625" xlink:href="#ArialMT-73"/>
     <use x="650.390625" xlink:href="#ArialMT-6f"/>
     <use x="706.005859375" xlink:href="#ArialMT-66"/>
     <use x="733.7890625" xlink:href="#ArialMT-74"/>
     <use x="761.572265625" xlink:href="#ArialMT-77"/>
     <use x="833.7890625" xlink:href="#ArialMT-61"/>
     <use x="889.404296875" xlink:href="#ArialMT-72"/>
     <use x="922.705078125" xlink:href="#ArialMT-65"/>
     <use x="978.3203125" xlink:href="#ArialMT-20"/>
     <use x="1006.103515625" xlink:href="#ArialMT-28"/>
     <use x="1039.404296875" xlink:href="#ArialMT-6e"/>
     <use x="1095.01953125" xlink:href="#ArialMT-6f"/>
     <use x="1150.634765625" xlink:href="#ArialMT-74"/>
     <use x="1178.41796875" xlink:href="#ArialMT-20"/>
     <use x="1206.201171875" xlink:href="#ArialMT-6e"/>
     <use x="1261.81640625" xlink:href="#ArialMT-65"/>
     <use x="1317.431640625" xlink:href="#ArialMT-63"/>
     <use x="1367.431640625" xlink:href="#ArialMT-65"/>
     <use x="1423.046875" xlink:href="#ArialMT-73"/>
     <use x="1473.046875" xlink:href="#ArialMT-73"/>
     <use x="1523.046875" xlink:href="#ArialMT-61"/>
     <use x="1578.662109375" xlink:href="#ArialMT-72"/>
     <use x="1611.962890625" xlink:href="#ArialMT-69"/>
     <use x="1634.1796875" xlink:href="#ArialMT-6c"/>
     <use x="1656.396484375" xlink:href="#ArialMT-79"/>
     <use x="1706.396484375" xlink:href="#ArialMT-20"/>
     <use x="1734.1796875" xlink:href="#ArialMT-48"/>
     <use x="1806.396484375" xlink:href="#ArialMT-61"/>
     <use x="1862.01171875" xlink:href="#ArialMT-78"/>
     <use x="1912.01171875" xlink:href="#ArialMT-65"/>
     <use x="1967.626953125" xlink:href="#ArialMT-29"/>
     <use x="2000.927734375" xlink:href="#ArialMT-3f"/>
    </g>
    <!-- (allow multiple selections) -->
    <g style="fill:#262626;" transform="translate(293.23025 55.3190625)scale(0.144 -0.144)">
     <use xlink:href="#ArialMT-28"/>
     <use x="33.30078125" xlink:href="#ArialMT-61"/>
     <use x="88.916015625" xlink:href="#ArialMT-6c"/>
     <use x="111.1328125" xlink:href="#ArialMT-6c"/>
     <use x="133.349609375" xlink:href="#ArialMT-6f"/>
     <use x="188.96484375" xlink:href="#ArialMT-77"/>
     <use x="261.181640625" xlink:href="#ArialMT-20"/>
     <use x="288.96484375" xlink:href="#ArialMT-6d"/>
     <use x="372.265625" xlink:href="#ArialMT-75"/>
     <use x="427.880859375" xlink:href="#ArialMT-6c"/>
     <use x="450.09765625" xlink:href="#ArialMT-74"/>
     <use x="477.880859375" xlink:href="#ArialMT-69"/>
     <use x="500.09765625" xlink:href="#ArialMT-70"/>
     <use x="555.712890625" xlink:href="#ArialMT-6c"/>
     <use x="577.9296875" xlink:href="#ArialMT-65"/>
     <use x="633.544921875" xlink:href="#ArialMT-20"/>
     <use x="661.328125" xlink:href="#ArialMT-73"/>
     <use x="711.328125" xlink:href="#ArialMT-65"/>
     <use x="766.943359375" xlink:href="#ArialMT-6c"/>
     <use x="789.16015625" xlink:href="#ArialMT-65"/>
     <use x="844.775390625" xlink:href="#ArialMT-63"/>
     <use x="894.775390625" xlink:href="#ArialMT-74"/>
     <use x="922.55859375" xlink:href="#ArialMT-69"/>
     <use x="944.775390625" xlink:href="#ArialMT-6f"/>
     <use x="1000.390625" xlink:href="#ArialMT-6e"/>
     <use x="1056.005859375" xlink:href="#ArialMT-73"/>
     <use x="1106.005859375" xlink:href="#ArialMT-29"/>
    </g>
   </g>
   <g id="legend_1">
    <g id="patch_27">
     <path d="M 251.822812 347.997812 
L 549.6025 347.997812 
L 549.6025 287.816562 
L 251.822812 287.816562 
z
" style="fill:#ffffff;opacity:0.8;stroke:#ffffff;stroke-linejoin:miter;"/>
    </g>
    <g id="patch_28">
     <path d="M 255.822812 299.09625 
L 275.822812 299.09625 
L 275.822812 292.09625 
L 255.822812 292.09625 
z
" style="fill:#1a2a35;"/>
    </g>
    <g id="text_14">
     <!-- Haxe is one of the main tools I used for professional works. -->
     <g style="fill:#262626;" transform="translate(283.8228125 299.09625)scale(0.1 -0.1)">
      <use xlink:href="#ArialMT-48"/>
      <use x="72.216796875" xlink:href="#ArialMT-61"/>
      <use x="127.83203125" xlink:href="#ArialMT-78"/>
      <use x="177.83203125" xlink:href="#ArialMT-65"/>
      <use x="233.447265625" xlink:href="#ArialMT-20"/>
      <use x="261.23046875" xlink:href="#ArialMT-69"/>
      <use x="283.447265625" xlink:href="#ArialMT-73"/>
      <use x="333.447265625" xlink:href="#ArialMT-20"/>
      <use x="361.23046875" xlink:href="#ArialMT-6f"/>
      <use x="416.845703125" xlink:href="#ArialMT-6e"/>
      <use x="472.4609375" xlink:href="#ArialMT-65"/>
      <use x="528.076171875" xlink:href="#ArialMT-20"/>
      <use x="555.859375" xlink:href="#ArialMT-6f"/>
      <use x="611.474609375" xlink:href="#ArialMT-66"/>
      <use x="639.2578125" xlink:href="#ArialMT-20"/>
      <use x="667.041015625" xlink:href="#ArialMT-74"/>
      <use x="694.82421875" xlink:href="#ArialMT-68"/>
      <use x="750.439453125" xlink:href="#ArialMT-65"/>
      <use x="806.0546875" xlink:href="#ArialMT-20"/>
      <use x="833.837890625" xlink:href="#ArialMT-6d"/>
      <use x="917.138671875" xlink:href="#ArialMT-61"/>
      <use x="972.75390625" xlink:href="#ArialMT-69"/>
      <use x="994.970703125" xlink:href="#ArialMT-6e"/>
      <use x="1050.5859375" xlink:href="#ArialMT-20"/>
      <use x="1078.369140625" xlink:href="#ArialMT-74"/>
      <use x="1106.15234375" xlink:href="#ArialMT-6f"/>
      <use x="1161.767578125" xlink:href="#ArialMT-6f"/>
      <use x="1217.3828125" xlink:href="#ArialMT-6c"/>
      <use x="1239.599609375" xlink:href="#ArialMT-73"/>
      <use x="1289.599609375" xlink:href="#ArialMT-20"/>
      <use x="1317.3828125" xlink:href="#ArialMT-49"/>
      <use x="1345.166015625" xlink:href="#ArialMT-20"/>
      <use x="1372.94921875" xlink:href="#ArialMT-75"/>
      <use x="1428.564453125" xlink:href="#ArialMT-73"/>
      <use x="1478.564453125" xlink:href="#ArialMT-65"/>
      <use x="1534.1796875" xlink:href="#ArialMT-64"/>
      <use x="1589.794921875" xlink:href="#ArialMT-20"/>
      <use x="1617.578125" xlink:href="#ArialMT-66"/>
      <use x="1645.361328125" xlink:href="#ArialMT-6f"/>
      <use x="1700.9765625" xlink:href="#ArialMT-72"/>
      <use x="1734.27734375" xlink:href="#ArialMT-20"/>
      <use x="1762.060546875" xlink:href="#ArialMT-70"/>
      <use x="1817.67578125" xlink:href="#ArialMT-72"/>
      <use x="1850.9765625" xlink:href="#ArialMT-6f"/>
      <use x="1906.591796875" xlink:href="#ArialMT-66"/>
      <use x="1934.375" xlink:href="#ArialMT-65"/>
      <use x="1989.990234375" xlink:href="#ArialMT-73"/>
      <use x="2039.990234375" xlink:href="#ArialMT-73"/>
      <use x="2089.990234375" xlink:href="#ArialMT-69"/>
      <use x="2112.20703125" xlink:href="#ArialMT-6f"/>
      <use x="2167.822265625" xlink:href="#ArialMT-6e"/>
      <use x="2223.4375" xlink:href="#ArialMT-61"/>
      <use x="2279.052734375" xlink:href="#ArialMT-6c"/>
      <use x="2301.26953125" xlink:href="#ArialMT-20"/>
      <use x="2329.052734375" xlink:href="#ArialMT-77"/>
      <use x="2401.26953125" xlink:href="#ArialMT-6f"/>
      <use x="2456.884765625" xlink:href="#ArialMT-72"/>
      <use x="2490.185546875" xlink:href="#ArialMT-6b"/>
      <use x="2540.185546875" xlink:href="#ArialMT-73"/>
      <use x="2590.185546875" xlink:href="#ArialMT-2e"/>
     </g>
    </g>
    <g id="patch_29">
     <path d="M 255.822812 313.363437 
L 275.822812 313.363437 
L 275.822812 306.363437 
L 255.822812 306.363437 
z
" style="fill:#417157;"/>
    </g>
    <g id="text_15">
     <!-- I use Haxe occasionally for professional works. -->
     <g style="fill:#262626;" transform="translate(283.8228125 313.3634375)scale(0.1 -0.1)">
      <use xlink:href="#ArialMT-49"/>
      <use x="27.783203125" xlink:href="#ArialMT-20"/>
      <use x="55.56640625" xlink:href="#ArialMT-75"/>
      <use x="111.181640625" xlink:href="#ArialMT-73"/>
      <use x="161.181640625" xlink:href="#ArialMT-65"/>
      <use x="216.796875" xlink:href="#ArialMT-20"/>
      <use x="244.580078125" xlink:href="#ArialMT-48"/>
      <use x="316.796875" xlink:href="#ArialMT-61"/>
      <use x="372.412109375" xlink:href="#ArialMT-78"/>
      <use x="422.412109375" xlink:href="#ArialMT-65"/>
      <use x="478.02734375" xlink:href="#ArialMT-20"/>
      <use x="505.810546875" xlink:href="#ArialMT-6f"/>
      <use x="561.42578125" xlink:href="#ArialMT-63"/>
      <use x="611.42578125" xlink:href="#ArialMT-63"/>
      <use x="661.42578125" xlink:href="#ArialMT-61"/>
      <use x="717.041015625" xlink:href="#ArialMT-73"/>
      <use x="767.041015625" xlink:href="#ArialMT-69"/>
      <use x="789.2578125" xlink:href="#ArialMT-6f"/>
      <use x="844.873046875" xlink:href="#ArialMT-6e"/>
      <use x="900.48828125" xlink:href="#ArialMT-61"/>
      <use x="956.103515625" xlink:href="#ArialMT-6c"/>
      <use x="978.3203125" xlink:href="#ArialMT-6c"/>
      <use x="1000.537109375" xlink:href="#ArialMT-79"/>
      <use x="1050.537109375" xlink:href="#ArialMT-20"/>
      <use x="1078.3203125" xlink:href="#ArialMT-66"/>
      <use x="1106.103515625" xlink:href="#ArialMT-6f"/>
      <use x="1161.71875" xlink:href="#ArialMT-72"/>
      <use x="1195.01953125" xlink:href="#ArialMT-20"/>
      <use x="1222.802734375" xlink:href="#ArialMT-70"/>
      <use x="1278.41796875" xlink:href="#ArialMT-72"/>
      <use x="1311.71875" xlink:href="#ArialMT-6f"/>
      <use x="1367.333984375" xlink:href="#ArialMT-66"/>
      <use x="1395.1171875" xlink:href="#ArialMT-65"/>
      <use x="1450.732421875" xlink:href="#ArialMT-73"/>
      <use x="1500.732421875" xlink:href="#ArialMT-73"/>
      <use x="1550.732421875" xlink:href="#ArialMT-69"/>
      <use x="1572.94921875" xlink:href="#ArialMT-6f"/>
      <use x="1628.564453125" xlink:href="#ArialMT-6e"/>
      <use x="1684.1796875" xlink:href="#ArialMT-61"/>
      <use x="1739.794921875" xlink:href="#ArialMT-6c"/>
      <use x="1762.01171875" xlink:href="#ArialMT-20"/>
      <use x="1789.794921875" xlink:href="#ArialMT-77"/>
      <use x="1862.01171875" xlink:href="#ArialMT-6f"/>
      <use x="1917.626953125" xlink:href="#ArialMT-72"/>
      <use x="1950.927734375" xlink:href="#ArialMT-6b"/>
      <use x="2000.927734375" xlink:href="#ArialMT-73"/>
      <use x="2050.927734375" xlink:href="#ArialMT-2e"/>
     </g>
    </g>
    <g id="patch_30">
     <path d="M 255.822812 327.747812 
L 275.822812 327.747812 
L 275.822812 320.747812 
L 255.822812 320.747812 
z
" style="fill:#94a276;"/>
    </g>
    <g id="text_16">
     <!-- I use Haxe but I'm not paid for that. -->
     <defs>
      <path d="M 6.640625 46.234375 
L 4.390625 59.625 
L 4.390625 71.578125 
L 14.40625 71.578125 
L 14.40625 59.625 
L 12.0625 46.234375 
z
" id="ArialMT-27"/>
     </defs>
     <g style="fill:#262626;" transform="translate(283.8228125 327.7478125)scale(0.1 -0.1)">
      <use xlink:href="#ArialMT-49"/>
      <use x="27.783203125" xlink:href="#ArialMT-20"/>
      <use x="55.56640625" xlink:href="#ArialMT-75"/>
      <use x="111.181640625" xlink:href="#ArialMT-73"/>
      <use x="161.181640625" xlink:href="#ArialMT-65"/>
      <use x="216.796875" xlink:href="#ArialMT-20"/>
      <use x="244.580078125" xlink:href="#ArialMT-48"/>
      <use x="316.796875" xlink:href="#ArialMT-61"/>
      <use x="372.412109375" xlink:href="#ArialMT-78"/>
      <use x="422.412109375" xlink:href="#ArialMT-65"/>
      <use x="478.02734375" xlink:href="#ArialMT-20"/>
      <use x="505.810546875" xlink:href="#ArialMT-62"/>
      <use x="561.42578125" xlink:href="#ArialMT-75"/>
      <use x="617.041015625" xlink:href="#ArialMT-74"/>
      <use x="644.82421875" xlink:href="#ArialMT-20"/>
      <use x="672.607421875" xlink:href="#ArialMT-49"/>
      <use x="700.390625" xlink:href="#ArialMT-27"/>
      <use x="719.482421875" xlink:href="#ArialMT-6d"/>
      <use x="802.783203125" xlink:href="#ArialMT-20"/>
      <use x="830.56640625" xlink:href="#ArialMT-6e"/>
      <use x="886.181640625" xlink:href="#ArialMT-6f"/>
      <use x="941.796875" xlink:href="#ArialMT-74"/>
      <use x="969.580078125" xlink:href="#ArialMT-20"/>
      <use x="997.36328125" xlink:href="#ArialMT-70"/>
      <use x="1052.978515625" xlink:href="#ArialMT-61"/>
      <use x="1108.59375" xlink:href="#ArialMT-69"/>
      <use x="1130.810546875" xlink:href="#ArialMT-64"/>
      <use x="1186.42578125" xlink:href="#ArialMT-20"/>
      <use x="1214.208984375" xlink:href="#ArialMT-66"/>
      <use x="1241.9921875" xlink:href="#ArialMT-6f"/>
      <use x="1297.607421875" xlink:href="#ArialMT-72"/>
      <use x="1330.908203125" xlink:href="#ArialMT-20"/>
      <use x="1358.69140625" xlink:href="#ArialMT-74"/>
      <use x="1386.474609375" xlink:href="#ArialMT-68"/>
      <use x="1442.08984375" xlink:href="#ArialMT-61"/>
      <use x="1497.705078125" xlink:href="#ArialMT-74"/>
      <use x="1525.48828125" xlink:href="#ArialMT-2e"/>
     </g>
    </g>
    <g id="patch_31">
     <path d="M 255.822812 341.893125 
L 275.822812 341.893125 
L 275.822812 334.893125 
L 255.822812 334.893125 
z
" style="fill:#e7d4cd;"/>
    </g>
    <g id="text_17">
     <!-- I do not use Haxe but I'm interested in using it. -->
     <g style="fill:#262626;" transform="translate(283.8228125 341.893125)scale(0.1 -0.1)">
      <use xlink:href="#ArialMT-49"/>
      <use x="27.783203125" xlink:href="#ArialMT-20"/>
      <use x="55.56640625" xlink:href="#ArialMT-64"/>
      <use x="111.181640625" xlink:href="#ArialMT-6f"/>
      <use x="166.796875" xlink:href="#ArialMT-20"/>
      <use x="194.580078125" xlink:href="#ArialMT-6e"/>
      <use x="250.1953125" xlink:href="#ArialMT-6f"/>
      <use x="305.810546875" xlink:href="#ArialMT-74"/>
      <use x="333.59375" xlink:href="#ArialMT-20"/>
      <use x="361.376953125" xlink:href="#ArialMT-75"/>
      <use x="416.9921875" xlink:href="#ArialMT-73"/>
      <use x="466.9921875" xlink:href="#ArialMT-65"/>
      <use x="522.607421875" xlink:href="#ArialMT-20"/>
      <use x="550.390625" xlink:href="#ArialMT-48"/>
      <use x="622.607421875" xlink:href="#ArialMT-61"/>
      <use x="678.22265625" xlink:href="#ArialMT-78"/>
      <use x="728.22265625" xlink:href="#ArialMT-65"/>
      <use x="783.837890625" xlink:href="#ArialMT-20"/>
      <use x="811.62109375" xlink:href="#ArialMT-62"/>
      <use x="867.236328125" xlink:href="#ArialMT-75"/>
      <use x="922.8515625" xlink:href="#ArialMT-74"/>
      <use x="950.634765625" xlink:href="#ArialMT-20"/>
      <use x="978.41796875" xlink:href="#ArialMT-49"/>
      <use x="1006.201171875" xlink:href="#ArialMT-27"/>
      <use x="1025.29296875" xlink:href="#ArialMT-6d"/>
      <use x="1108.59375" xlink:href="#ArialMT-20"/>
      <use x="1136.376953125" xlink:href="#ArialMT-69"/>
      <use x="1158.59375" xlink:href="#ArialMT-6e"/>
      <use x="1214.208984375" xlink:href="#ArialMT-74"/>
      <use x="1241.9921875" xlink:href="#ArialMT-65"/>
      <use x="1297.607421875" xlink:href="#ArialMT-72"/>
      <use x="1330.908203125" xlink:href="#ArialMT-65"/>
      <use x="1386.5234375" xlink:href="#ArialMT-73"/>
      <use x="1436.5234375" xlink:href="#ArialMT-74"/>
      <use x="1464.306640625" xlink:href="#ArialMT-65"/>
      <use x="1519.921875" xlink:href="#ArialMT-64"/>
      <use x="1575.537109375" xlink:href="#ArialMT-20"/>
      <use x="1603.3203125" xlink:href="#ArialMT-69"/>
      <use x="1625.537109375" xlink:href="#ArialMT-6e"/>
      <use x="1681.15234375" xlink:href="#ArialMT-20"/>
      <use x="1708.935546875" xlink:href="#ArialMT-75"/>
      <use x="1764.55078125" xlink:href="#ArialMT-73"/>
      <use x="1814.55078125" xlink:href="#ArialMT-69"/>
      <use x="1836.767578125" xlink:href="#ArialMT-6e"/>
      <use x="1892.3828125" xlink:href="#ArialMT-67"/>
      <use x="1947.998046875" xlink:href="#ArialMT-20"/>
      <use x="1975.78125" xlink:href="#ArialMT-69"/>
      <use x="1997.998046875" xlink:href="#ArialMT-74"/>
      <use x="2025.78125" xlink:href="#ArialMT-2e"/>
     </g>
    </g>
   </g>
  </g>
 </g>
 <defs>
  <clipPath id="pba8a7ac4ef">
   <rect height="292.67875" width="358.6925" x="195.91" y="60.3190625"/>
  </clipPath>
 </defs>
</svg>
